<svg xmlns="http://www.w3.org/2000/svg" width="764" height="884" fill="none"><g clip-path="url(#a)"><path fill="#000" d="m188.593 828.073 32.922-21.847c-7.989-15.686-15.771-31.458-22.638-47.661-9.818-23.193-19.774-49.457-20.585-74.909-.276-8.818.776-15.479 3.623-22.623 2.451-6.161 7.679-13.702 11.872-18.275 12.63-13.822 26.244-22.157 43.568-31.423 19.118-10.216 39.133-18.551 58.7-27.852 9.611-4.555 12.112-18.326 7.057-26.954-5.746-9.836-17.307-11.648-26.952-7.058-37.701 17.912-79.475 32.994-108.876 63.969-15.754 16.601-25.675 36.635-28.005 59.465-2.881 28.128 7.023 58.533 16.927 84.452 9.283 24.262 20.654 47.592 32.37 70.733l.017-.017z"/><path fill="#FF4A00" d="m231.384 805.691.138 52.338-122.818 4.142-55.611 1.881s-8.128-59.293 52.937-68.214c5.987-.88 12.682-1.26 20.067-1.053-1.053-2.001-4.314-8.748-2.64-17.377.328-1.673 2.174-10.302 8.782-14.857 8.593-5.988 31.835-4.176 43.016 6.816l20.895-.207s31.956-14.443 43.292 3.814c9.559 17.635-8.075 32.717-8.075 32.717h.017z"/><path fill="#000" d="m52.35 864.932-.103-.777c-.086-.604-7.54-60.241 53.679-69.18 5.763-.845 12.096-1.225 18.79-1.104-1.622-3.52-3.468-9.474-2.087-16.652.483-2.468 2.536-10.855 9.127-15.393 9.197-6.402 32.422-4.262 43.862 6.661l20.36-.207c1.225-.535 8.679-3.693 17.462-4.935 12.682-1.795 21.913 1.38 26.744 9.145 9.093 16.773-5.607 31.407-7.937 33.564l.138 52.786-180.034 6.075v.017zm69.916-69.336c-5.711 0-11.129.363-16.098 1.105-56.475 8.248-53.076 59.24-52.3 66.471l176.809-5.971-.155-51.889.31-.259s4.348-3.762 7.454-9.543c4.09-7.644 4.245-15.082.432-22.105-10.784-17.377-41.86-3.589-42.171-3.434l-.345.069-21.257.207-.259-.241c-10.612-10.423-33.336-12.701-41.929-6.713-6.056 4.176-7.972 12.01-8.42 14.305-1.484 7.627.966 13.805 2.553 16.808l.691 1.311-1.484-.034a141.684 141.684 0 0 0-3.831-.052v-.035z"/><path fill="#fff" d="M53.093 864.052c-.743.707-3.797 3.779-4.107 8.731-.362 5.936 3.52 9.802 4.107 10.354h179.189c1.018-1.156 4.572-5.487 4.745-12.079.172-7.179-3.814-11.959-4.745-13.029-59.736 2.002-119.471 4.021-179.19 6.023z"/><path fill="#000" d="M232.679 884H52.747l-.241-.242c-.794-.759-4.745-4.866-4.366-11.026.294-4.936 3.158-8.163 4.366-9.319l.241-.224 179.932-6.057.276.311c1.553 1.76 5.141 6.626 4.952 13.632-.173 6.488-3.52 10.992-4.952 12.631l-.259.294h-.017zm-179.224-1.726h178.447c1.415-1.691 4.141-5.66 4.279-11.234.156-6.022-2.743-10.319-4.262-12.131l-178.447 6.006c-1.156 1.173-3.365 3.899-3.606 7.937-.294 4.936 2.57 8.37 3.589 9.44v-.018z"/><path fill="#fff" d="m108.721 862.171-55.611 1.881s-8.127-59.293 52.937-68.214c6.246 11.009 12.061 31.631 2.674 66.333z"/><path fill="#000" d="m52.35 864.932-.103-.777c-.086-.604-7.54-60.241 53.679-69.18l.587-.086.293.518c6.453 11.354 12.165 32.2 2.761 66.988l-.173.621-57.026 1.933-.018-.017zm53.231-68.145c-24.657 3.762-40.842 16.135-48.106 36.79-4.745 13.529-3.917 26.368-3.606 29.577l54.179-1.829c8.887-33.321 3.676-53.425-2.467-64.555v.017zm113.415 16.152-.466-1.657a34.782 34.782 0 0 0 6.626-2.623 37.067 37.067 0 0 0 5.694-3.641l1.069 1.364a37.282 37.282 0 0 1-5.97 3.813 38.303 38.303 0 0 1-6.953 2.744zm-92.656-18.997-.462 1.662 37.424 10.394.462-1.663-37.424-10.393zm-9.245.387-1.069 1.354 35.699 28.186 1.069-1.354-35.699-28.186z"/><path fill="#fff" d="M171.149 806.054a4.08 4.08 0 0 1-4.073 4.072 4.08 4.08 0 0 1-4.072-4.072 4.08 4.08 0 0 1 4.072-4.073 4.08 4.08 0 0 1 4.073 4.073z"/><path fill="#000" d="M167.076 810.989a4.934 4.934 0 0 1-4.934-4.935 4.934 4.934 0 1 1 9.869 0 4.934 4.934 0 0 1-4.935 4.935zm0-8.145a3.203 3.203 0 0 0-3.209 3.21 3.203 3.203 0 0 0 3.209 3.209 3.203 3.203 0 0 0 3.21-3.209 3.203 3.203 0 0 0-3.21-3.21z"/><path fill="#fff" d="M159.26 825.415a4.08 4.08 0 0 1-4.072 4.073 4.08 4.08 0 0 1-4.072-4.073 4.08 4.08 0 0 1 4.072-4.072 4.08 4.08 0 0 1 4.072 4.072z"/><path fill="#000" d="M155.188 830.35a4.934 4.934 0 1 1 4.935-4.935 4.934 4.934 0 0 1-4.935 4.935zm0-8.145a3.204 3.204 0 0 0-3.209 3.21 3.204 3.204 0 0 0 3.209 3.21 3.204 3.204 0 0 0 3.209-3.21 3.204 3.204 0 0 0-3.209-3.21zm33.405 5.868 32.922-21.847c-7.989-15.686-15.771-31.458-22.638-47.661-9.818-23.193-19.774-49.457-20.585-74.909-.276-8.818.776-15.479 3.623-22.623 2.451-6.161 7.679-13.702 11.872-18.275 12.63-13.822 26.244-22.157 43.568-31.423 19.118-10.216 39.133-18.551 58.7-27.852 9.611-4.555 12.112-18.326 7.057-26.954-5.746-9.836-17.307-11.648-26.952-7.058-37.701 17.912-79.475 32.994-108.876 63.969-15.754 16.601-25.675 36.635-28.005 59.465-2.881 28.128 7.023 58.533 16.927 84.452 9.283 24.262 20.654 47.592 32.37 70.733l.017-.017z"/><path fill="#FC0" d="m231.384 805.691.138 52.338-122.818 4.142-55.611 1.881s-8.128-59.293 52.937-68.214c5.987-.88 12.682-1.26 20.067-1.053-1.053-2.001-4.314-8.748-2.64-17.377.328-1.673 2.174-10.302 8.782-14.857 8.593-5.988 31.835-4.176 43.016 6.816l20.895-.207s31.956-14.443 43.292 3.814c9.559 17.635-8.075 32.717-8.075 32.717h.017z"/><path fill="#000" d="m52.35 864.932-.103-.777c-.086-.604-7.54-60.241 53.679-69.18 5.763-.845 12.096-1.225 18.79-1.104-1.622-3.52-3.468-9.474-2.087-16.652.483-2.468 2.536-10.855 9.127-15.393 9.197-6.402 32.422-4.262 43.862 6.661l20.36-.207c1.225-.535 8.679-3.693 17.462-4.935 12.682-1.795 21.913 1.38 26.744 9.145 9.093 16.773-5.607 31.407-7.937 33.564l.138 52.786-180.034 6.075v.017zm69.916-69.336c-5.711 0-11.129.363-16.098 1.105-56.475 8.248-53.076 59.24-52.3 66.471l176.809-5.971-.155-51.889.31-.259s4.348-3.762 7.454-9.543c4.09-7.644 4.245-15.082.432-22.105-10.784-17.377-41.86-3.589-42.171-3.434l-.345.069-21.257.207-.259-.241c-10.612-10.423-33.336-12.701-41.929-6.713-6.056 4.176-7.972 12.01-8.42 14.305-1.484 7.627.966 13.805 2.553 16.808l.691 1.311-1.484-.034a141.684 141.684 0 0 0-3.831-.052v-.035z"/><path fill="#fff" d="M53.093 864.052c-.743.707-3.797 3.779-4.107 8.731-.362 5.936 3.52 9.802 4.107 10.354h179.189c1.018-1.156 4.572-5.487 4.745-12.079.172-7.179-3.814-11.959-4.745-13.029-59.736 2.002-119.471 4.021-179.19 6.023z"/><path fill="#000" d="M232.679 884H52.747l-.241-.242c-.794-.759-4.745-4.866-4.366-11.026.294-4.936 3.158-8.163 4.366-9.319l.241-.224 179.932-6.057.276.311c1.553 1.76 5.141 6.626 4.952 13.632-.173 6.488-3.52 10.992-4.952 12.631l-.259.294h-.017zm-179.224-1.726h178.447c1.415-1.691 4.141-5.66 4.279-11.234.156-6.022-2.743-10.319-4.262-12.131l-178.447 6.006c-1.156 1.173-3.365 3.899-3.606 7.937-.294 4.936 2.57 8.37 3.589 9.44v-.018z"/><path fill="#fff" d="m108.721 862.171-55.611 1.881s-8.127-59.293 52.937-68.214c6.246 11.009 12.061 31.631 2.674 66.333z"/><path fill="#000" d="m52.35 864.932-.103-.777c-.086-.604-7.54-60.241 53.679-69.18l.587-.086.293.518c6.453 11.354 12.165 32.2 2.761 66.988l-.173.621-57.026 1.933-.018-.017zm53.231-68.145c-24.657 3.762-40.842 16.135-48.106 36.79-4.745 13.529-3.917 26.368-3.606 29.577l54.179-1.829c8.887-33.321 3.676-53.425-2.467-64.555v.017zm113.415 16.152-.466-1.657a34.782 34.782 0 0 0 6.626-2.623 37.067 37.067 0 0 0 5.694-3.641l1.069 1.364a37.282 37.282 0 0 1-5.97 3.813 38.303 38.303 0 0 1-6.953 2.744zm-92.656-18.997-.462 1.662 37.424 10.394.462-1.663-37.424-10.393zm-9.245.387-1.069 1.354 35.699 28.186 1.069-1.354-35.699-28.186z"/><path fill="#fff" d="M171.149 806.054a4.08 4.08 0 0 1-4.073 4.072 4.08 4.08 0 0 1-4.072-4.072 4.08 4.08 0 0 1 4.072-4.073 4.08 4.08 0 0 1 4.073 4.073z"/><path fill="#000" d="M167.076 810.989a4.934 4.934 0 0 1-4.934-4.935 4.934 4.934 0 1 1 9.869 0 4.934 4.934 0 0 1-4.935 4.935zm0-8.145a3.203 3.203 0 0 0-3.209 3.21 3.203 3.203 0 0 0 3.209 3.209 3.203 3.203 0 0 0 3.21-3.209 3.203 3.203 0 0 0-3.21-3.21z"/><path fill="#fff" d="M159.26 825.415a4.08 4.08 0 0 1-4.072 4.073 4.08 4.08 0 0 1-4.072-4.073 4.08 4.08 0 0 1 4.072-4.072 4.08 4.08 0 0 1 4.072 4.072z"/><path fill="#000" d="M155.188 830.35a4.934 4.934 0 1 1 4.935-4.935 4.934 4.934 0 0 1-4.935 4.935zm0-8.145a3.204 3.204 0 0 0-3.209 3.21 3.204 3.204 0 0 0 3.209 3.21 3.204 3.204 0 0 0 3.209-3.21 3.204 3.204 0 0 0-3.209-3.21zm389.04 5.868-32.922-21.847c7.989-15.686 15.771-31.458 22.638-47.661 9.818-23.193 19.774-49.457 20.585-74.909.276-8.818-.777-15.479-3.624-22.623-2.45-6.161-7.678-13.702-11.871-18.275-12.63-13.822-26.244-22.157-43.568-31.423-19.118-10.216-39.133-18.551-58.7-27.852-9.611-4.555-12.113-18.326-7.057-26.954 5.746-9.836 17.306-11.648 26.952-7.058 37.701 17.912 79.475 32.994 108.876 63.969 15.754 16.601 25.675 36.635 28.005 59.465 2.881 28.128-7.023 58.533-16.927 84.452-9.283 24.262-20.654 47.592-32.37 70.733l-.017-.017z"/><path fill="#FF4A00" d="m501.436 805.691-.138 52.338 122.819 4.142 55.611 1.881s8.127-59.293-52.937-68.214c-5.987-.88-12.682-1.26-20.067-1.053 1.053-2.001 4.314-8.748 2.64-17.377-.328-1.673-2.174-10.302-8.783-14.857-8.592-5.988-31.834-4.176-43.015 6.816l-20.896-.207s-31.955-14.443-43.291 3.814c-9.56 17.635 8.075 32.717 8.075 32.717h-.018z"/><path fill="#000" d="m680.47 864.932-56.388-1.898-123.646-4.159.138-52.787c-2.33-2.157-17.048-16.79-7.972-33.511 4.849-7.817 14.097-10.975 26.762-9.198 8.783 1.243 16.237 4.383 17.462 4.935l20.36.207c11.423-10.906 34.665-13.062 43.861-6.643 6.592 4.538 8.662 12.942 9.128 15.392 1.398 7.162-.466 13.132-2.088 16.635 6.695-.12 13.027.242 18.791 1.105 61.202 8.938 53.748 68.576 53.679 69.18l-.104.776.017-.034zm-178.309-7.731 176.808 5.971c.777-7.231 4.159-58.223-52.299-66.471-6.073-.898-12.768-1.243-19.929-1.053l-1.484.035.691-1.312c1.587-3.002 4.037-9.18 2.553-16.807-.448-2.295-2.364-10.13-8.42-14.306-8.593-5.97-31.317-3.71-41.929 6.713l-.258.242-21.603-.294c-.311-.138-31.404-13.908-42.205 3.486-9.11 16.79 7.73 31.475 7.903 31.613l.31.259-.138 51.889v.035z"/><path fill="#fff" d="M679.728 864.052c.742.707 3.796 3.779 4.107 8.731.362 5.936-3.52 9.802-4.107 10.354H500.539c-1.018-1.156-4.572-5.487-4.745-12.079-.172-7.179 3.813-11.959 4.745-13.029 59.736 2.002 119.471 4.021 179.189 6.023z"/><path fill="#000" d="M680.091 884H500.16l-.259-.294c-1.432-1.639-4.797-6.143-4.952-12.631-.173-6.989 3.416-11.855 4.952-13.632l.276-.311h.414l179.534 6.057.242.224c1.208 1.156 4.072 4.383 4.365 9.301.363 5.988-3.244 9.957-4.365 11.027l-.259.242-.017.017zm-179.155-1.726h178.447c1.036-1.07 3.9-4.521 3.589-9.439-.241-4.038-2.45-6.764-3.606-7.938l-178.447-6.005c-1.519 1.829-4.417 6.126-4.262 12.131.138 5.574 2.864 9.543 4.279 11.234v.017z"/><path fill="#fff" d="m624.117 862.171 55.611 1.881s8.127-59.293-52.937-68.214c-6.246 11.009-12.061 31.631-2.674 66.333z"/><path fill="#000" d="m680.47 864.932-57.026-1.933-.173-.621c-9.421-34.771-3.692-55.617 2.744-66.989l.293-.517.587.086c61.202 8.939 53.748 68.576 53.679 69.18l-.104.777v.017zm-55.698-3.607 54.18 1.829c.638-6.919 3.416-57.963-51.712-66.384-6.126 11.13-11.354 31.234-2.468 64.555zm-110.947-48.386a37.597 37.597 0 0 1-6.953-2.744 37.282 37.282 0 0 1-5.97-3.813l1.069-1.364a34.665 34.665 0 0 0 5.694 3.641 37.018 37.018 0 0 0 6.626 2.623l-.466 1.657zm92.701-19.051-37.424 10.394.462 1.662 37.424-10.393-.462-1.663zm9.171.421-35.714 28.167 1.068 1.355 35.714-28.167-1.068-1.355z"/><path fill="#fff" d="M561.672 806.054a4.08 4.08 0 0 0 4.072 4.072 4.079 4.079 0 0 0 4.072-4.072 4.08 4.08 0 0 0-4.072-4.073 4.08 4.08 0 0 0-4.072 4.073z"/><path fill="#000" d="M565.744 810.989a4.934 4.934 0 0 1-4.934-4.935 4.934 4.934 0 1 1 9.869 0 4.934 4.934 0 0 1-4.935 4.935zm0-8.145a3.203 3.203 0 0 0-3.209 3.21 3.203 3.203 0 0 0 3.209 3.209 3.203 3.203 0 0 0 3.21-3.209 3.203 3.203 0 0 0-3.21-3.21z"/><path fill="#fff" d="M573.561 825.415a4.08 4.08 0 0 0 4.072 4.073 4.08 4.08 0 0 0 4.072-4.073 4.08 4.08 0 0 0-4.072-4.072 4.08 4.08 0 0 0-4.072 4.072z"/><path fill="#000" d="M577.633 830.35a4.934 4.934 0 1 1 4.935-4.935 4.934 4.934 0 0 1-4.935 4.935zm0-8.145a3.204 3.204 0 0 0-3.209 3.21 3.204 3.204 0 0 0 3.209 3.21 3.204 3.204 0 0 0 3.209-3.21 3.204 3.204 0 0 0-3.209-3.21zm-33.405 5.868-32.922-21.847c7.989-15.686 15.771-31.458 22.638-47.661 9.818-23.193 19.774-49.457 20.585-74.909.276-8.818-.777-15.479-3.624-22.623-2.45-6.161-7.678-13.702-11.871-18.275-12.63-13.822-26.244-22.157-43.568-31.423-19.118-10.216-39.133-18.551-58.7-27.852-9.611-4.555-12.113-18.326-7.057-26.954 5.746-9.836 17.306-11.648 26.952-7.058 37.701 17.912 79.475 32.994 108.876 63.969 15.754 16.601 25.675 36.635 28.005 59.465 2.881 28.128-7.023 58.533-16.927 84.452-9.283 24.262-20.654 47.592-32.37 70.733l-.017-.017z"/><path fill="#FC0" d="m501.436 805.691-.138 52.338 122.819 4.142 55.611 1.881s8.127-59.293-52.937-68.214c-5.987-.88-12.682-1.26-20.067-1.053 1.053-2.001 4.314-8.748 2.64-17.377-.328-1.673-2.174-10.302-8.783-14.857-8.592-5.988-31.834-4.176-43.015 6.816l-20.896-.207s-31.955-14.443-43.291 3.814c-9.56 17.635 8.075 32.717 8.075 32.717h-.018z"/><path fill="#000" d="m680.47 864.932-56.388-1.898-123.646-4.159.138-52.787c-2.33-2.157-17.048-16.79-7.972-33.511 4.849-7.817 14.097-10.975 26.762-9.198 8.783 1.243 16.237 4.383 17.462 4.935l20.36.207c11.423-10.906 34.665-13.062 43.861-6.643 6.592 4.538 8.662 12.942 9.128 15.392 1.398 7.162-.466 13.132-2.088 16.635 6.695-.12 13.027.242 18.791 1.105 61.202 8.938 53.748 68.576 53.679 69.18l-.104.776.017-.034zm-178.309-7.731 176.808 5.971c.777-7.231 4.159-58.223-52.299-66.471-6.073-.898-12.768-1.243-19.929-1.053l-1.484.035.691-1.312c1.587-3.002 4.037-9.18 2.553-16.807-.448-2.295-2.364-10.13-8.42-14.306-8.593-5.97-31.317-3.71-41.929 6.713l-.258.242-21.603-.294c-.311-.138-31.404-13.908-42.205 3.486-9.11 16.79 7.73 31.475 7.903 31.613l.31.259-.138 51.889v.035z"/><path fill="#fff" d="M679.728 864.052c.742.707 3.796 3.779 4.107 8.731.362 5.936-3.52 9.802-4.107 10.354H500.539c-1.018-1.156-4.572-5.487-4.745-12.079-.172-7.179 3.813-11.959 4.745-13.029 59.736 2.002 119.471 4.021 179.189 6.023z"/><path fill="#000" d="M680.091 884H500.16l-.259-.294c-1.432-1.639-4.797-6.143-4.952-12.631-.173-6.989 3.416-11.855 4.952-13.632l.276-.311h.414l179.534 6.057.242.224c1.208 1.156 4.072 4.383 4.365 9.301.363 5.988-3.244 9.957-4.365 11.027l-.259.242-.017.017zm-179.155-1.726h178.447c1.036-1.07 3.9-4.521 3.589-9.439-.241-4.038-2.45-6.764-3.606-7.938l-178.447-6.005c-1.519 1.829-4.417 6.126-4.262 12.131.138 5.574 2.864 9.543 4.279 11.234v.017z"/><path fill="#fff" d="m624.117 862.171 55.611 1.881s8.127-59.293-52.937-68.214c-6.246 11.009-12.061 31.631-2.674 66.333z"/><path fill="#000" d="m680.47 864.932-57.026-1.933-.173-.621c-9.421-34.771-3.692-55.617 2.744-66.989l.293-.517.587.086c61.202 8.939 53.748 68.576 53.679 69.18l-.104.777v.017zm-55.698-3.607 54.18 1.829c.638-6.919 3.416-57.963-51.712-66.384-6.126 11.13-11.354 31.234-2.468 64.555zm-110.947-48.386a37.597 37.597 0 0 1-6.953-2.744 37.282 37.282 0 0 1-5.97-3.813l1.069-1.364a34.665 34.665 0 0 0 5.694 3.641 37.018 37.018 0 0 0 6.626 2.623l-.466 1.657zm92.701-19.051-37.424 10.394.462 1.662 37.424-10.393-.462-1.663zm9.171.421-35.714 28.167 1.068 1.355 35.714-28.167-1.068-1.355z"/><path fill="#fff" d="M561.672 806.054a4.08 4.08 0 0 0 4.072 4.072 4.079 4.079 0 0 0 4.072-4.072 4.08 4.08 0 0 0-4.072-4.073 4.08 4.08 0 0 0-4.072 4.073z"/><path fill="#000" d="M565.744 810.989a4.934 4.934 0 0 1-4.934-4.935 4.934 4.934 0 1 1 9.869 0 4.934 4.934 0 0 1-4.935 4.935zm0-8.145a3.203 3.203 0 0 0-3.209 3.21 3.203 3.203 0 0 0 3.209 3.209 3.203 3.203 0 0 0 3.21-3.209 3.203 3.203 0 0 0-3.21-3.21z"/><path fill="#fff" d="M573.561 825.415a4.08 4.08 0 0 0 4.072 4.073 4.08 4.08 0 0 0 4.072-4.073 4.08 4.08 0 0 0-4.072-4.072 4.08 4.08 0 0 0-4.072 4.072z"/><path fill="#000" d="M577.633 830.35a4.934 4.934 0 1 1 4.935-4.935 4.934 4.934 0 0 1-4.935 4.935zm0-8.145a3.204 3.204 0 0 0-3.209 3.21 3.204 3.204 0 0 0 3.209 3.21 3.204 3.204 0 0 0 3.209-3.21 3.204 3.204 0 0 0-3.209-3.21z"/><path fill="#FF8717" d="M463.873 123.606a2512.58 2512.58 0 0 1-70.519-84.935c-9.991-12.562-28.557 4.004-18.618 16.514a2512.375 2512.375 0 0 0 70.519 84.935c10.526 12.114 29.126-4.4 18.618-16.514z"/><path fill="#000" d="M453.917 145.245c-3.192 0-6.487-1.311-9.317-4.555-24.312-28.007-47.381-55.807-70.537-84.953-5.487-6.902-2.761-15.15 2.588-19.395 4.711-3.745 12.147-4.763 17.375 1.812a2480.469 2480.469 0 0 0 70.503 84.9c5.608 6.454 3.434 14.271-1.622 18.671-2.433 2.123-5.66 3.538-8.99 3.538v-.018zm-69.156-110.18c-2.537 0-5.039 1.018-7.04 2.623-4.814 3.83-7.161 10.888-2.312 16.98a2493.404 2493.404 0 0 0 70.502 84.9c4.969 5.729 11.699 4.452 15.857.846 4.262-3.71 6.54-10.371 1.449-16.238a2500.41 2500.41 0 0 1-70.536-84.953c-2.347-2.95-5.16-4.141-7.903-4.141l-.017-.017z"/><path fill="#FF8717" d="M394.225 50.573c11.096-10.94 11.224-28.803.286-39.9-10.938-11.096-28.8-11.224-39.896-.285s-11.224 28.802-.286 39.9c10.938 11.096 28.8 11.224 39.896.285z"/><path fill="#000" d="M374.425 59.551c-.586 0-1.173 0-1.76-.052-16.012-.949-28.246-14.754-27.297-30.767.949-16.014 14.788-28.249 30.765-27.3 15.995.95 28.246 14.754 27.297 30.768-.914 15.41-13.752 27.351-29.005 27.351zm-.034-56.428c-14.339 0-26.417 11.217-27.28 25.73-.897 15.064 10.612 28.04 25.675 28.938 15.012.897 28.039-10.612 28.936-25.677.897-15.065-10.612-28.041-25.675-28.939a26.534 26.534 0 0 0-1.656-.052z"/><path fill="#fff" d="M368.662 8.3c-12.389-.742-13.562 18.533-1.156 19.276 12.389.741 13.562-18.534 1.156-19.276z"/><path fill="#FF8717" d="M332.048 115.72a2500.835 2500.835 0 0 0 80.13-75.927c11.406-11.286 27.884 7.368 16.513 18.62a2523.168 2523.168 0 0 1-80.13 75.927c-11.889 10.785-28.402-7.852-16.513-18.62z"/><path fill="#000" d="M340.71 138.447c-1.225 0-2.45-.19-3.676-.587-4.727-1.519-8.61-5.833-9.662-10.734-.966-4.486.483-8.766 4.106-12.044 27.453-24.884 53.645-49.715 80.114-75.893 3.313-3.261 7.367-4.452 11.422-3.348 4.642 1.277 8.645 5.453 9.939 10.406 1.225 4.71-.052 9.249-3.641 12.786a2496.087 2496.087 0 0 1-80.165 75.945c-2.536 2.295-5.435 3.469-8.437 3.469zm79.285-101.294c-2.14 0-4.676.742-7.213 3.261a2496.322 2496.322 0 0 1-80.165 75.945c-3.14 2.847-4.4 6.54-3.571 10.405.931 4.314 4.348 8.128 8.506 9.456 3.641 1.174 7.351.277 10.422-2.519 27.452-24.883 53.645-49.715 80.113-75.893 3.123-3.089 4.245-7.04 3.175-11.13-1.156-4.366-4.659-8.058-8.731-9.18a9.523 9.523 0 0 0-2.554-.345h.018z"/><path fill="#FF8717" d="M448.431 56.773c12.645-9.104 15.516-26.736 6.413-39.382-9.103-12.646-26.733-15.518-39.378-6.414-12.645 9.104-15.516 26.736-6.413 39.382 9.103 12.646 26.733 15.517 39.378 6.413z"/><path fill="#000" d="M431.987 63.002c-.587 0-1.174 0-1.76-.051-16.013-.95-28.246-14.754-27.297-30.768.949-16.014 14.77-28.266 30.765-27.3 16.012.95 28.246 14.755 27.297 30.768-.915 15.41-13.752 27.351-29.005 27.351zm-.035-56.445c-14.338 0-26.417 11.217-27.279 25.73-.898 15.064 10.611 28.04 25.674 28.938 15.029.915 28.039-10.613 28.936-25.677.898-15.065-10.611-28.042-25.674-28.939a26.59 26.59 0 0 0-1.657-.052z"/><path fill="#fff" d="M441.166 12.632c-12.389-.742-13.562 18.533-1.156 19.275 12.389.742 13.562-18.533 1.156-19.275z"/><path fill="#FF8717" d="m670.514 165.366-1.742-7.196c-5.832-24.072-22.863-43.9-45.777-53.27a76.907 76.907 0 0 0-24.605-5.608L201.068 75.53c-8.455-.5-16.927.38-25.105 2.64a77.13 77.13 0 0 0-51.799 47.438l-2.588 6.937a77.258 77.258 0 0 0-4.607 20.759l-12.302 152.873 561.931 33.597 6.004-153.235a77.273 77.273 0 0 0-2.105-21.156l.017-.017z"/><path fill="#000" d="m667.426 340.689-.88-.052-562.811-33.649 12.371-153.753a77.792 77.792 0 0 1 4.659-21.001l2.588-6.937c8.714-23.399 28.298-41.328 52.385-47.972a77.714 77.714 0 0 1 25.382-2.657l397.322 23.761a78.247 78.247 0 0 1 24.881 5.66c23.121 9.457 40.428 29.595 46.294 53.874l1.743 7.196a77.666 77.666 0 0 1 2.122 21.398l-6.039 154.115-.017.017zm-561.81-35.323 560.171 33.494 5.97-152.355a76.345 76.345 0 0 0-2.088-20.932l-1.743-7.196c-5.745-23.744-22.672-43.434-45.276-52.683a76.183 76.183 0 0 0-24.329-5.539L200.999 76.393c-8.368-.5-16.72.38-24.812 2.606-23.553 6.488-42.688 24.02-51.229 46.902l-2.588 6.937a75.604 75.604 0 0 0-4.555 20.535l-12.234 151.993h.035z"/><path fill="#B9A4E9" d="m641.906 223.399-6.988-49.146c-3.002-21.156-20.481-37.256-41.808-38.533l-391.179-23.399c-21.327-1.277-40.6 12.631-46.105 33.269l-12.785 47.955-99.956 269.87a97.852 97.852 0 0 0 7.247 83.347l9.593 16.445a67.994 67.994 0 0 0 54.663 33.598l507.545 30.354a67.945 67.945 0 0 0 58.268-26.851l9.991-13.201c18.618-24.607 25.226-56.255 18.048-86.263l-66.516-277.463-.018.018z"/><path fill="#000" d="M626.205 628.16c-1.381 0-2.761-.035-4.141-.121l-507.545-30.354c-23.035-1.38-43.723-14.098-55.353-34.029l-9.593-16.428c-14.96-25.625-17.617-56.272-7.316-84.072l99.956-269.869 12.768-47.886c5.59-20.949 25.33-35.22 46.984-33.909l391.18 23.4c21.637 1.294 39.547 17.808 42.601 39.275l6.989 49.094 66.516 277.41c7.282 30.371.656 62.071-18.186 86.988l-9.991 13.201c-13.079 17.291-33.353 27.317-54.869 27.317v-.017zM199.256 113.114c-19.773 0-37.442 13.408-42.584 32.718l-12.786 47.955-99.99 269.939c-10.129 27.333-7.506 57.428 7.178 82.605l9.593 16.428c11.337 19.43 31.507 31.837 53.973 33.166l507.544 30.354c22.449 1.346 43.965-8.559 57.527-26.506l9.991-13.201c18.531-24.486 25.053-55.668 17.893-85.539l-66.534-277.531-6.988-49.145c-2.934-20.656-20.171-36.549-40.997-37.791l-391.18-23.4a44.15 44.15 0 0 0-2.622-.086l-.018.034z"/><path fill="#000" d="M150.719 555.356c-.241-22.916-5.245-46.109-14.459-67.058-9.093-20.638-21.965-39.033-38.288-54.633l1.19-1.242c16.478 15.755 29.506 34.322 38.685 55.185 9.318 21.174 14.373 44.59 14.615 67.748h-1.743zm459.594 27.472-1.708-.225c3.037-23.278 10.629-45.332 22.569-65.521 11.595-19.621 26.745-36.497 44.983-50.181l1.035 1.38c-18.066 13.546-33.043 30.268-44.534 49.681-11.82 19.982-19.343 41.812-22.345 64.866z"/><path fill="#000" d="M722.623 526.624c-3.761.932-7.592 1.64-11.439 2.209-25.572 3.676-52.765-.138-77.888-3.348-31.351-4.003-62.703-8.006-94.055-11.941-10.594-1.329-19.687-7.955-19.687-19.689 0-9.681 9.11-21.018 19.687-19.689 36.356 4.572 72.694 9.749 109.101 13.753 15.581 1.708 31.283 3.02 46.967 2.588 3.365-.086 7.075.311 10.664.328 5.763.035 11.233-.932 14.373-6.575 4.227-7.523.569-18.74-2.916-25.073-6.039-10.975-13.235-21.415-20.516-31.579a382.254 382.254 0 0 0-8.972-12.01l-23.122-96.393c.501.569.984 1.156 1.433 1.795 10.732 14.788 20.929 29.974 32.024 44.486 10.474 13.719 21.551 26.92 31.645 40.914 13.165 18.223 28.367 38.861 32.887 61.329 5.919 29.387-11.871 51.976-40.22 58.93l.034-.035z"/><path fill="#FC0" d="M504.387 443.035c1.639.035 3.227-.517 4.745-1.535-1.587 1.208-3.192 1.76-4.745 1.535z"/><path fill="#000" d="M505.06 443.933c-.259 0-.535-.018-.794-.052l.138-1.726c1.415.018 2.847-.448 4.245-1.397l1.001 1.397c-1.553 1.174-3.089 1.76-4.59 1.76v.018z"/><path fill="#FC0" d="M505.905 443.432a3.88 3.88 0 0 0 1.605-.069c-2.329.88-5.901.276-11.336-2.398-5.504-2.71-8.196-16.963-5.142-35.6 3.054-18.654 10.249-32.2 16.202-31.924 4.918.242 8.196 1.432 10.422 2.658-.225-.087-.449-.138-.673-.19-5.901-1.018-13.165 13.27-16.219 31.924-3.055 18.636-.76 34.581 5.141 35.599z"/><path fill="#000" d="M505.25 444.588c-2.45 0-5.574-.949-9.456-2.847-6.229-3.054-8.575-18.412-5.608-36.514 3.089-18.93 10.491-32.89 17.1-32.631 4.227.207 7.764 1.104 10.801 2.761l-.725 1.57a2.665 2.665 0 0 0-.534-.138c-.846-.138-1.812.138-2.83.863-4.935 3.52-10.025 15.996-12.372 30.336-3.226 19.689-.31 33.788 4.435 34.616.397.069.811.052 1.242-.052l.518 1.64c-.76.293-1.622.431-2.571.431v-.035zm1.811-70.284c-4.865 0-12.009 11.82-15.166 31.199-3.192 19.465.017 32.407 4.676 34.685 2.415 1.191 4.52 1.985 6.298 2.381-4.642-5.107-5.298-20.483-2.934-34.892 2.468-14.995 7.713-27.644 13.079-31.458a8.656 8.656 0 0 1 1.191-.707c-2.071-.69-4.383-1.087-6.971-1.225h-.138l-.035.017z"/><path fill="#FC0" d="M519.053 376.996a10.9 10.9 0 0 0-1.363-.88c.483.172.932.483 1.363.88z"/><path fill="#000" d="M518.536 377.686a9.666 9.666 0 0 0-1.243-.811l.708-1.57c.569.207 1.121.569 1.639 1.052l-1.104 1.312v.017z"/><path fill="#FC0" d="M505.923 443.432c-5.901-1.018-8.196-16.945-5.142-35.599 3.054-18.654 10.318-32.942 16.219-31.924 5.901 1.018 8.196 16.945 5.142 35.599-3.054 18.637-10.318 32.942-16.219 31.924z"/><path fill="#000" d="M506.527 444.347c-.259 0-.501-.018-.742-.069-7.213-1.243-8.645-19.569-5.85-36.583 2.468-14.996 7.713-27.645 13.079-31.476 1.415-1.001 2.796-1.397 4.141-1.156 7.213 1.243 8.645 19.586 5.85 36.583-2.45 14.996-7.713 27.645-13.079 31.476-1.139.811-2.278 1.225-3.382 1.225h-.017zm-.466-1.778c.862.156 1.829-.138 2.847-.862 4.935-3.521 10.025-15.997 12.371-30.337 3.227-19.689.311-33.787-4.434-34.616-.863-.155-1.829.138-2.847.863-4.935 3.52-10.025 15.997-12.389 30.354-3.227 19.689-.311 33.787 4.434 34.616l.018-.018z"/><path fill="#FC0" d="M522.487 445.641c1.639.035 3.227-.518 4.745-1.536-1.587 1.208-3.192 1.76-4.745 1.536z"/><path fill="#000" d="M523.16 446.556c-.259 0-.535-.018-.794-.052l.138-1.726c1.45.052 2.847-.448 4.245-1.38l1.001 1.398c-1.553 1.173-3.089 1.76-4.59 1.76z"/><path fill="#FC0" d="M524.023 446.038a3.893 3.893 0 0 0 1.604-.069c-2.329.88-5.901.276-11.336-2.399-5.504-2.709-8.196-16.963-5.142-35.599 3.054-18.654 10.249-32.2 16.202-31.924 4.918.241 8.196 1.432 10.422 2.657a4.801 4.801 0 0 0-.673-.189c-5.901-1.019-13.165 13.27-16.219 31.923-3.054 18.637-.759 34.582 5.142 35.6z"/><path fill="#000" d="M523.35 447.211c-2.45 0-5.573-.949-9.456-2.847-6.229-3.054-8.575-18.412-5.607-36.514 3.054-18.723 10.283-32.649 16.875-32.649h.224c4.227.207 7.747 1.105 10.801 2.761l-.724 1.571a2.693 2.693 0 0 0-.535-.138c-.846-.138-1.812.138-2.83.862-4.935 3.521-10.025 15.997-12.372 30.337-3.226 19.689-.31 33.787 4.435 34.616.397.069.811.051 1.242-.052l.518 1.639c-.759.294-1.622.432-2.571.432v-.018zm1.812-70.301c-4.866 0-12.01 11.82-15.167 31.199-3.192 19.465.017 32.407 4.676 34.685 2.415 1.19 4.52 1.984 6.298 2.381-4.642-5.108-5.297-20.483-2.934-34.892 2.468-14.995 7.713-27.644 13.079-31.458a9.523 9.523 0 0 1 1.174-.707c-2.071-.691-4.383-1.088-6.971-1.226h-.138l-.017.018z"/><path fill="#FC0" d="M537.171 379.602a9.29 9.29 0 0 0-1.363-.88c.483.172.931.483 1.363.88z"/><path fill="#000" d="M536.653 380.292a9.515 9.515 0 0 0-1.242-.811l.707-1.57c.57.207 1.122.569 1.639 1.052l-1.104 1.312v.017z"/><path fill="#FC0" d="M540.227 413.986c3.04-18.652.717-34.554-5.189-35.517-5.907-.963-13.16 13.377-16.201 32.029-3.041 18.653-.718 34.554 5.189 35.517 5.907.964 13.16-13.377 16.201-32.029z"/><path fill="#000" d="M524.627 446.953c-.259 0-.501-.018-.742-.069-7.213-1.243-8.645-19.586-5.85-36.584 2.451-14.995 7.713-27.644 13.079-31.475 1.398-1.001 2.796-1.398 4.141-1.156 7.213 1.242 8.645 19.569 5.85 36.583-2.468 14.996-7.713 27.645-13.079 31.475-1.139.811-2.278 1.226-3.382 1.226h-.017zm-.449-1.761c.863.156 1.829-.138 2.847-.862 4.935-3.521 10.025-15.997 12.389-30.354 3.226-19.689.31-33.788-4.435-34.616-.862-.155-1.829.138-2.847.863-4.934 3.52-10.025 15.996-12.371 30.336-3.227 19.69-.311 33.788 4.434 34.616l-.017.017z"/><path fill="#fff" d="M550.629 458.635s16.927-14.944 21.724 4.59c3.675 14.944-3.02 45.677-6.384 59.344-1.536 6.281-6.85 11.096-13.286 11.545-4.918.345-10.319-1.795-13.821-10.63-7.126 3.14-18.653 7.144-33.146 7.541-9.214.259-41.291 1.139-52.092-19.051-1.743-3.262-5.539-11.959-1.846-26.299-6.747-7.506-7.73-17.342-3.33-23.295 3.054-4.159 7.919-5.315 9.869-5.66 0 0-9.628-39.379 9.318-53.391 11.146-7.748 19.118-.984 21.24 5.194 1.432 4.142 1.277 8.663.759 13.443-1.294 11.717-1.19 41.138 16.099 40.137 15.046-.862 11.923-21.328 14.735-33.149 1.45-6.074 2.485-15.979 9.991-17.549 8.058-1.674 12.82 7.282 14.718 13.615.742 2.485 1.26 5.039 1.639 7.61l3.813 25.953v.052z"/><path fill="#000" d="M551.751 535.028c-4.296 0-9.714-1.967-13.338-10.388-10.542 4.521-21.534 6.954-32.663 7.265-27.78.776-45.552-5.798-52.868-19.517-2.692-5.039-5.211-13.719-2.036-26.471-6.54-7.541-7.851-17.584-3.089-24.038 2.744-3.71 6.85-5.211 9.542-5.815-.587-2.675-2.243-11.182-2.277-20.759-.052-15.462 4.141-26.748 12.112-32.632 6.16-4.279 11.009-4.021 14.011-3.037 4.642 1.519 7.471 5.47 8.558 8.645 1.553 4.504 1.294 9.301.794 13.823-1.07 9.663-.949 28.093 6.332 35.737 2.364 2.485 5.367 3.641 8.869 3.434 10.508-.604 11.544-11.596 12.544-22.209.346-3.71.673-7.23 1.415-10.267.19-.777.363-1.622.552-2.502 1.277-6.005 3.02-14.219 10.094-15.686 7.955-1.657 13.338 6.247 15.719 14.219.708 2.347 1.243 4.866 1.657 7.731l3.589 24.469c2.588-1.95 8.834-6.022 14.304-4.297 3.658 1.139 6.229 4.608 7.626 10.302 3.745 15.272-3.209 46.868-6.384 59.758-1.673 6.834-7.333 11.735-14.062 12.201-.328.017-.656.034-1.001.034zm-12.406-12.666.328.828c2.812 7.093 7.178 10.458 12.958 10.078 5.901-.414 11.043-4.901 12.51-10.889 3.14-12.752 10.042-44.037 6.384-58.93-1.243-5.073-3.417-8.11-6.471-9.076-6.039-1.899-13.786 4.849-13.855 4.918l-1.191 1.052-4.037-27.541c-.414-2.778-.932-5.245-1.605-7.489-.742-2.502-4.918-14.857-13.717-13.011-5.971 1.243-7.523 8.525-8.766 14.357-.19.898-.379 1.743-.569 2.537-.69 2.933-1.018 6.385-1.363 10.026-1.018 10.819-2.174 23.089-14.166 23.779-4.072.241-7.506-1.105-10.232-3.969-7.696-8.111-7.886-27.161-6.781-37.118.483-4.314.724-8.904-.708-13.08-.966-2.796-3.434-6.247-7.471-7.576-3.762-1.225-8.058-.259-12.475 2.796-18.256 13.494-9.059 52.079-8.973 52.476l.225.897-.898.155c-2.329.414-6.625 1.657-9.334 5.315-4.348 5.902-2.968 15.255 3.278 22.209l.311.345-.121.449c-3.209 12.476-.811 20.845 1.777 25.677 6.988 13.08 24.243 19.344 51.298 18.602 11.198-.311 22.241-2.813 32.818-7.472l.811-.362.035.017z"/><path fill="#000" d="M481.887 473.803c-6.384-.121-20.067-9.491-24.381-16.704l1.484-.88c4.02 6.713 17.099 15.772 22.931 15.876l-.034 1.725v-.017zm-7.419 26.419c-4.901 0-18.722-7.886-23.519-14.253l1.381-1.036c4.693 6.23 18.272 13.633 22.206 13.581l.035 1.726h-.103v-.018zm75.309-41.792-3.98 18.348 1.686.366 3.98-18.348-1.686-.366zm-8.865 53.46-2.461 11.243 1.685.369 2.462-11.243-1.686-.369zM249.26 392.388c-37.425 11.217-73.315 26.92-110.326 39.345-26.382 8.852-51.953 20.88-79.56 25.573a91.778 91.778 0 0 1-14.512 1.312c-22.552.345-47.26-7.541-44.672-34.944 1.052-11.165 7.074-21.536 13.165-30.682 8.248-12.372 17.91-23.934 27.607-35.185 21.396-24.832 44.724-47.903 67.656-71.302l-31.007 83.727a614.477 614.477 0 0 0-7.074 8.024c-6.678 7.696-13.234 15.547-19.429 23.658-5.055 6.609-19.083 23.348-.552 22.916 2.467-.052 4.866-.483 7.247-1.156 6.746-1.864 13.183-5.608 19.67-7.731 52.989-17.325 104.184-40.397 157.587-56.393 9.3-2.778 19.342-.38 23.535 9.353 3.503 8.145-.086 20.776-9.352 23.537l.017-.052z"/><path fill="#fff" d="M221.446 348.006c2.295-.846 1.967-6.851 1.95-9.371-.104-16.427 12.44-31.699 21.361-38.688 3.606-2.83 15.425-12.701 23.656-10.854 17.634 3.969 1.397 31.061-3.399 39.724 4.279-1.502 5.331-1.83 6.453-2.226 2.122-.76 4.245-1.536 6.367-2.347 3.761-1.45 7.471-3.02 11.129-4.694 8.593-3.969 16.737-8.835 25.382-12.683 5.797-2.589 14.666-6.609 20.722-2.589 4.055 2.692 4.142 8.404 3.934 12.735v.328s18.912 3.624 7.437 23.227c1.984.777 4.366 1.363 5.556 3.296 4.262 6.903-3.244 18.723-7.005 24.245-9.542 13.978-23.622 27.593-38.202 36.359-12.113 7.282-25.865 10.112-39.858 8.058-2.726-.396-5.418-.966-8.075-1.639-2.261-.587-6.35-2.899-8.559-2.675-.034 0-.741 3.193-.811 3.4-.845 2.588-2.122 5.073-3.951 7.092-4.262 4.711-11.164 6.816-17.047 3.883-8.852-4.401-12.268-14.53-15.443-23.175-3.831-10.389-8.593-20.345-12.993-30.526-13.183-30.544 12.044-25.695 15.719-23.814 5.435 2.795 4.486 3.382 5.711 2.934h-.034z"/><path fill="#000" d="M234.162 424.882c-2.122 0-4.227-.466-6.159-1.415-8.852-4.4-12.407-14.098-15.547-22.657l-.397-1.053c-2.674-7.265-5.884-14.478-8.989-21.45a825.852 825.852 0 0 1-3.986-9.025c-4.935-11.423-5.142-19.361-.639-23.572 5.401-5.056 15.599-2.588 17.704-1.501 2.726 1.398 3.899 2.278 4.52 2.744.104.086.19.155.259.19.035 0 .086-.035.138-.052 1.415-.518 1.329-5.867 1.312-7.627v-.811c-.121-17.636 13.613-33.098 21.74-39.465l.708-.552c4.659-3.693 15.563-12.321 23.777-10.475 3.813.863 6.436 2.813 7.764 5.815 3.986 8.922-4.624 24.815-9.248 33.098 1.104-.38 1.863-.639 2.45-.846.656-.224 1.087-.379 1.536-.535a247.128 247.128 0 0 0 6.332-2.347 190.815 190.815 0 0 0 11.06-4.676c4.038-1.864 8.058-3.969 11.94-6.005 4.366-2.278 8.869-4.642 13.442-6.696l.172-.069c6.005-2.674 15.064-6.712 21.5-2.433 4.141 2.761 4.589 8.128 4.4 13.132 2.122.587 7.695 2.554 10.059 7.748 1.932 4.245 1.191 9.543-2.209 15.738 1.795.656 3.814 1.432 4.97 3.296 3.278 5.315.983 13.598-7.023 25.315-9.801 14.357-24.208 28.058-38.512 36.652-12.372 7.437-26.365 10.267-40.514 8.197-2.64-.38-5.401-.95-8.179-1.674-.863-.225-1.932-.673-3.071-1.139-1.484-.604-3.261-1.346-4.486-1.501-.087.379-.19.845-.294 1.294-.155.707-.31 1.328-.345 1.415-.949 2.951-2.364 5.453-4.158 7.437-3.261 3.589-7.696 5.522-12.061 5.522l.034-.017zm-26.296-80.276c-2.916 0-6.004.621-8.058 2.537-3.778 3.537-3.399 10.923 1.105 21.346 1.294 3.019 2.64 6.005 3.968 9.007 3.123 6.989 6.333 14.237 9.042 21.571l.397 1.07c3.019 8.213 6.418 17.515 14.58 21.57 5.09 2.536 11.612 1.018 15.874-3.676 1.622-1.794 2.882-4.055 3.744-6.73.035-.103.156-.655.294-1.259.414-1.83.862-2.773 1.345-2.83 1.691-.173 3.935.759 6.109 1.656 1.069.432 2.07.863 2.812 1.035a75.974 75.974 0 0 0 7.972 1.623c13.683 2.001 27.245-.742 39.202-7.938 14.08-8.456 28.246-21.95 37.891-36.083 7.42-10.854 9.766-18.654 6.971-23.175-.811-1.329-2.467-1.933-4.072-2.519a17.431 17.431 0 0 1-1.001-.38l-1.069-.414.586-1.001c3.537-6.04 4.435-11.061 2.692-14.927-2.45-5.401-9.404-6.816-9.473-6.833l-.828-.155.052-1.191c.207-4.573-.035-9.56-3.503-11.855-5.539-3.676-14.011.103-19.601 2.588l-.173.069c-4.52 2.019-9.007 4.366-13.338 6.644-3.899 2.053-7.954 4.159-12.026 6.057a201.036 201.036 0 0 1-11.181 4.728 282.591 282.591 0 0 1-6.384 2.364c-.449.156-.897.311-1.57.535-.949.328-2.364.811-4.901 1.691l-2.433.846 2.054-3.71c3.985-7.127 13.337-23.814 9.628-32.149-1.087-2.433-3.175-3.968-6.402-4.693-7.298-1.64-18.065 6.885-22.12 10.095l-.725.569c-7.851 6.143-21.085 21.035-20.981 37.895v.793c.086 4.315-.069 8.594-2.589 9.509-1.035.379-1.449.189-2.26-.415-.587-.431-1.674-1.242-4.245-2.571-1.121-.569-4.158-1.346-7.402-1.346l.017.052z"/><path fill="#000" d="m286.168 351.163-.708-1.846c.363-.138 35.959-14.012 52.765-32.649l1.467 1.312c-17.117 18.982-53.162 33.028-53.524 33.166v.017zm15.339 23.555-.794-1.812c20.568-8.938 45.535-32.7 45.794-32.925l1.363 1.433c-.258.241-25.485 24.245-46.363 33.321v-.017zm-78.326-27.642-1.8.795 5.12 11.603 1.8-.794-5.12-11.604zm23.929 50.032-1.851.666 3.874 10.765 1.851-.666-3.874-10.765z"/><path fill="#fff" d="M364.556 170.957c-.604 1.467-4.814 10.078-6.454 12.804-22.776 38.326-67.69 57.015-110.205 47.317-7.23-1.605-14.356-4.056-21.275-7.334-50.953-24.193-72.659-85.073-48.468-136.03 24.139-50.976 85.065-72.667 136.018-48.474a104.433 104.433 0 0 1 11.509 6.368c26.9 17.256 43.464 45.729 46.38 76.186v.052c.087.966.173 1.967.276 2.916 1.001 15.375-1.432 31.148-7.781 46.195z"/><path fill="#000" d="M270.725 234.512a102.9 102.9 0 0 1-23-2.606 101.456 101.456 0 0 1-21.448-7.403c-24.847-11.803-43.62-32.562-52.851-58.464-9.231-25.902-7.816-53.857 3.969-78.705 11.785-24.85 32.525-43.624 58.441-52.856 25.899-9.232 53.869-7.817 78.716 3.986a108.938 108.938 0 0 1 11.595 6.42c26.693 17.117 43.74 45.124 46.777 76.824v.241l.276 2.71c1.053 16.134-1.587 31.803-7.851 46.609-.655 1.622-4.9 10.215-6.505 12.925-18.842 31.699-52.488 50.301-88.136 50.301l.017.018zm-.259-204.33c-11.457 0-22.931 1.966-34.043 5.918-25.485 9.077-45.88 27.54-57.458 51.976-11.595 24.434-12.993 51.923-3.917 77.394 9.076 25.47 27.538 45.884 51.971 57.497a99.407 99.407 0 0 0 21.085 7.282c42.861 9.785 86.774-9.076 109.274-46.902 1.57-2.623 5.78-11.199 6.384-12.683 6.143-14.582 8.748-29.992 7.713-45.815l-.311-3.089v-.052c-3.019-31.096-19.756-58.55-45.949-75.34a105.38 105.38 0 0 0-11.405-6.316c-13.787-6.54-28.539-9.836-43.361-9.836l.017-.035z"/><path fill="#000" d="M325.853 218.325c-28.797 17.843-66.378 20.76-97.764 5.798a99.242 99.242 0 0 1-9.507-5.176 101.982 101.982 0 0 1-21.862-18.137c3.261-12.579 19.498-8.386 24.795-19.275 4.382-9.077 2.174-18.706 11.491-24.09 7.472-4.383 17.721-.724 26.59-1.104 17.461-.776 13.596-12.286 21.913-26.574 5.28-9.112 11.578-10.527 22.241-10.009 12.355.621 13.442 3.089 18.083-8.576 2.813-6.989 3.071-17.17 8.144-22.416 7.316-7.438 20.033-7.127 30.041 1.277a142.276 142.276 0 0 1 4.486 3.951c12.337 29.474 9.904 62.175-4.849 88.715-.621.673-1.052 1.484-1.397 2.553-1.605 4.798-6.592 9.923-9.818 13.719-6.54 7.679-14.184 14.15-22.587 19.362v-.018z"/><path fill="#000" d="M271.312 234.615c-14.995 0-29.92-3.209-43.586-9.715a97.205 97.205 0 0 1-9.593-5.229 102.43 102.43 0 0 1-22.052-18.291l-.31-.345.121-.449c1.846-7.11 7.557-9.18 13.096-11.199 4.848-1.76 9.421-3.434 11.768-8.249 1.483-3.089 2.191-6.264 2.881-9.335 1.311-5.885 2.554-11.441 8.955-15.134 5.211-3.054 11.647-2.381 17.876-1.743 3.037.311 6.212.639 9.093.518 11.44-.501 13.217-5.764 15.892-13.702 1.259-3.71 2.674-7.92 5.297-12.441 5.504-9.508 12.078-10.975 23.018-10.44 2.036.103 3.778.259 5.262.397 7.385.655 8.334.742 11.975-8.421.983-2.434 1.639-5.229 2.329-8.197 1.26-5.384 2.571-10.958 6.005-14.495 7.799-7.92 20.913-7.42 31.214 1.208a149.96 149.96 0 0 1 4.52 3.969l.207.31c12.251 29.249 10.457 61.864-4.883 89.473l-.121.173c-.5.535-.862 1.208-1.207 2.243-1.398 4.194-5.246 8.577-8.334 12.114-.587.656-1.139 1.294-1.657 1.898-6.47 7.593-14.131 14.168-22.793 19.534-16.668 10.32-35.873 15.565-55.008 15.565l.035-.017zm-73.643-34.029a101.373 101.373 0 0 0 21.361 17.636 97.958 97.958 0 0 0 9.438 5.142c30.558 14.564 67.708 12.356 96.937-5.763 8.506-5.264 16.029-11.717 22.396-19.189.518-.604 1.087-1.243 1.674-1.916 2.985-3.399 6.695-7.644 7.989-11.51.414-1.208.88-2.088 1.518-2.795 15.012-27.075 16.772-59.016 4.814-87.696a121.915 121.915 0 0 0-4.313-3.796c-9.594-8.042-21.741-8.594-28.884-1.33-3.106 3.193-4.349 8.525-5.556 13.685-.673 2.899-1.381 5.884-2.399 8.438-4.003 10.026-5.659 10.216-13.735 9.508a121.668 121.668 0 0 0-5.193-.379c-10.474-.518-16.358.794-21.448 9.577-2.536 4.366-3.934 8.49-5.159 12.114-2.812 8.317-4.831 14.322-17.462 14.875-3.036.138-6.246-.207-9.352-.518-6.228-.638-12.112-1.26-16.84 1.519-5.746 3.313-6.85 8.283-8.127 14.029-.707 3.175-1.449 6.436-3.019 9.698-2.64 5.436-7.765 7.299-12.717 9.111-5.211 1.898-10.146 3.693-11.889 9.56h-.034zM137.851 79.5l-.798 1.53 36.753 19.158.798-1.53-36.753-19.159zm24.49-47.959-1.18 1.259 32.171 30.17 1.18-1.258-32.171-30.17zM205.833-.023l-1.51.835 20.742 37.53 1.51-.834-20.742-37.53z"/><path fill="#fff" d="M630.656 164.02c-.293 1.553-2.709 10.837-3.761 13.84-14.667 42.087-54.956 69.369-98.541 68.351a100.278 100.278 0 0 1-22.311-2.95c-54.748-13.547-88.171-68.87-74.626-123.624 13.493-54.754 68.863-88.179 123.612-74.633a103.91 103.91 0 0 1 12.544 3.952c29.816 11.544 51.713 36.134 60.65 65.401v.052c.294.914.57 1.88.863 2.812 4.038 14.858 4.814 30.803 1.588 46.816l-.018-.017z"/><path fill="#000" d="M530.769 247.091c-.811 0-1.639 0-2.45-.034a101.768 101.768 0 0 1-22.5-2.968c-26.71-6.609-49.245-23.21-63.445-46.747-14.218-23.538-18.411-51.217-11.802-77.912 6.574-26.713 23.173-49.25 46.725-63.468 23.553-14.22 51.229-18.413 77.922-11.803a105.154 105.154 0 0 1 12.648 3.986c29.574 11.458 51.85 35.496 61.15 65.953l.069.207v.034c.121.397.242.812.362 1.208.139.466.294.932.432 1.398 4.244 15.6 4.779 31.475 1.605 47.248-.328 1.725-2.761 10.992-3.796 13.96-14.46 41.501-53.231 68.956-96.937 68.956l.017-.018zm-.448-204.261c-18.204 0-36.131 4.952-52.126 14.599-23.156 13.977-39.479 36.134-45.95 62.398-6.487 26.247-2.381 53.46 11.613 76.617 13.976 23.141 36.131 39.465 62.393 45.971a100.487 100.487 0 0 0 22.12 2.916c43.965 1.07 83.236-26.195 97.713-67.765 1.001-2.882 3.434-12.131 3.727-13.719 3.123-15.513 2.588-31.13-1.57-46.436-.138-.431-.276-.897-.432-1.38-.138-.466-.293-.932-.431-1.398l-.069-.207v-.052c-9.162-29.853-31.058-53.408-60.063-64.642a104.816 104.816 0 0 0-12.441-3.917c-8.127-2.002-16.34-3.002-24.502-3.002l.018.017z"/><path fill="#000" d="M602.169 218.153c-24.657 23.227-60.909 33.58-94.642 25.194-3.502-.88-6.97-1.933-10.352-3.175a102.76 102.76 0 0 1-25.054-13.408c.69-12.977 17.427-12.114 20.447-23.848 2.467-9.767-1.605-18.775 6.453-25.902 6.436-5.798 17.22-4.245 25.83-6.402 16.944-4.228 10.87-14.754 16.168-30.405 3.347-9.992 9.248-12.632 19.791-14.237 12.233-1.846 13.786.345 16.012-12.01 1.363-7.42-.414-17.446 3.52-23.59 5.677-8.748 18.203-10.974 29.695-4.745 1.743.95 3.503 1.967 5.194 2.968 17.962 26.42 22.12 58.947 12.958 87.903-.483.777-.725 1.674-.863 2.779-.604 5.021-4.469 11.044-6.884 15.409-4.866 8.818-11.078 16.704-18.273 23.469z"/><path fill="#000" d="M531.339 247.091c-8.058 0-16.116-.949-24.019-2.916-3.52-.88-7.04-1.95-10.439-3.21a103.21 103.21 0 0 1-25.261-13.511l-.379-.276v-.466c.414-7.334 5.608-10.509 10.629-13.581 4.4-2.692 8.541-5.246 9.887-10.423.845-3.313.897-6.574.966-9.715.121-6.022.224-11.717 5.746-16.617 4.486-4.038 10.939-4.66 17.168-5.281 3.054-.293 6.194-.604 9.024-1.311 11.112-2.779 11.802-8.283 12.838-16.601.483-3.882 1.035-8.3 2.726-13.253 3.485-10.405 9.628-13.149 20.481-14.823 2.019-.31 3.744-.5 5.245-.673 7.368-.828 8.3-.949 10.06-10.647.483-2.571.552-5.453.656-8.49.155-5.522.327-11.25 2.985-15.41 6.056-9.318 19.014-11.44 30.834-5.038 1.639.88 3.382 1.898 5.211 2.985l.276.259c17.824 26.212 22.586 58.533 13.061 88.645l-.086.19c-.379.638-.604 1.363-.742 2.433-.535 4.4-3.416 9.456-5.746 13.529-.431.759-.862 1.501-1.242 2.191-4.831 8.732-11.026 16.704-18.445 23.676-19.446 18.309-45.38 28.317-71.417 28.317l-.017.017zm-58.304-20.759a101.144 101.144 0 0 0 34.717 16.169c32.852 8.162 68.811-1.398 93.83-24.987 7.282-6.85 13.373-14.685 18.118-23.261.379-.69.811-1.432 1.242-2.209 2.243-3.934 5.038-8.818 5.539-12.873.155-1.277.431-2.209.931-3.037 9.301-29.525 4.659-61.19-12.768-86.902a128.339 128.339 0 0 0-4.987-2.847c-11.008-5.954-23.017-4.09-28.556 4.452-2.398 3.744-2.554 9.232-2.709 14.512-.086 2.968-.172 6.04-.673 8.749-1.915 10.63-3.503 11.13-11.56 12.045-1.467.172-3.175.362-5.177.656-10.37 1.587-15.874 4.037-19.101 13.666-1.622 4.78-2.157 9.094-2.64 12.908-1.087 8.714-1.88 14.996-14.131 18.067-2.951.742-6.16 1.053-9.266 1.363-6.229.604-12.113 1.191-16.185 4.849-4.969 4.401-5.055 9.474-5.176 15.358-.069 3.245-.121 6.592-1.018 10.113-1.519 5.849-6.16 8.714-10.646 11.458-4.728 2.899-9.214 5.642-9.749 11.751h-.035zM645.441 59.285 610.37 81.372l.919 1.46 35.071-22.087-.919-1.46z"/><path fill="#000" d="m672.455 103.045-42.273 12.571.491 1.654 42.274-12.571-.492-1.654zM632.2 157.659l-.041 1.725 42.866 1.011.041-1.725-42.866-1.011z"/><path fill="#5A0CE1" d="M374.218 236.565c23.743 4.469 47.761 5.919 71.728 4.211 20.878-1.484 61.305 4.107 45.673 41.259-10.629 25.246-40.1 35.617-61.634 38.878-37.391 5.66-94.693-.776-125.562-30.647-13.545-13.114-20.636-38.446-3.278-51.389 19.222-14.34 52.247-6.229 73.073-2.312z"/><path fill="#000" d="M403.931 323.64c-13.148 0-26.676-1.312-39.341-3.866-25.606-5.194-46.605-15.168-60.753-28.869-9.076-8.784-14.46-21.743-13.752-33.029.517-8.11 4.175-14.926 10.542-19.689 17.911-13.356 47.002-7.679 68.242-3.537a516.9 516.9 0 0 0 5.522 1.07c23.777 4.469 47.847 5.884 71.503 4.21 15.857-1.122 37.425 1.864 46.121 13.978 5.177 7.23 5.315 16.807.415 28.455-12.148 28.887-47.623 37.17-62.307 39.396-8.265 1.26-17.116 1.864-26.175 1.864l-.017.017zm-72.608-92.079c-11.077 0-21.603 2.002-29.678 8.007-5.953 4.452-9.369 10.819-9.852 18.412-.69 10.802 4.503 23.227 13.217 31.665 28.919 28.007 84.686 36.497 124.82 30.406 14.39-2.175 49.158-10.285 60.978-38.361 4.658-11.061 4.589-20.086-.225-26.782-8.265-11.544-29.177-14.357-44.586-13.27-23.828 1.692-48.036.277-71.951-4.227-1.76-.328-3.607-.691-5.522-1.07-11.164-2.175-24.536-4.797-37.201-4.797v.017z"/><path fill="#000" d="M405.725 283.088c-1.156 0-2.312 0-3.468-.035-28.332-.673-56.647-9.749-81.89-26.246l.949-1.45c24.967 16.324 52.971 25.315 80.993 25.971 21.792.5 43.326-3.866 63.928-13.012l.707 1.571c-19.739 8.766-40.324 13.183-61.202 13.183l-.017.018z"/><path fill="#79CC9E" d="M399.289 229.162c12.379 0 22.414-10.036 22.414-22.416s-10.035-22.415-22.414-22.415c-12.379 0-22.414 10.035-22.414 22.415 0 12.38 10.035 22.416 22.414 22.416z"/><path fill="#000" d="M399.289 230.025c-12.837 0-23.276-10.44-23.276-23.279 0-12.838 10.439-23.278 23.276-23.278 12.838 0 23.277 10.44 23.277 23.278 0 12.839-10.439 23.279-23.277 23.279zm0-44.832c-11.888 0-21.551 9.664-21.551 21.553 0 11.89 9.663 21.553 21.551 21.553 11.889 0 21.551-9.663 21.551-21.553 0-11.889-9.662-21.553-21.551-21.553z"/></g><defs><clipPath id="a"><path fill="#fff" d="M0 0h764v884H0z"/></clipPath></defs></svg>