<svg xmlns="http://www.w3.org/2000/svg" xmlns:xlink="http://www.w3.org/1999/xlink" width="2000" zoomAndPan="magnify" viewBox="0 0 1500 1499.999933" height="2000" preserveAspectRatio="xMidYMid meet" version="1.0"><path fill="#32463b" d="M 1212.386719 955.9375 C 1187.769531 955.9375 1163.953125 959.273438 1141.285156 965.410156 C 1090.683594 818.164062 951.070312 712.292969 786.652344 712.292969 C 630.65625 712.292969 496.949219 807.574219 440.4375 943.09375 C 420.289062 936.703125 398.839844 933.234375 376.578125 933.234375 C 260.019531 933.234375 165.535156 1027.730469 165.535156 1144.289062 C 165.535156 1144.433594 165.542969 1144.5625 165.542969 1144.707031 C 73.117188 1150.714844 0 1227.542969 0 1321.488281 C 0 1419.359375 79.335938 1498.695312 177.203125 1498.695312 C 179.917969 1498.695312 182.613281 1498.613281 185.292969 1498.488281 L 185.3125 1498.695312 L 186.679688 1498.441406 C 187.898438 1498.371094 189.101562 1498.253906 190.3125 1498.160156 L 1191.546875 1498.160156 C 1198.429688 1498.6875 1205.367188 1499.03125 1212.386719 1499.03125 C 1362.363281 1499.03125 1483.933594 1377.460938 1483.933594 1227.492188 C 1483.933594 1077.527344 1362.363281 955.9375 1212.386719 955.9375 Z M 1212.386719 955.9375 " fill-opacity="1" fill-rule="nonzero"/></svg>