<svg xmlns="http://www.w3.org/2000/svg" width="414" height="512" fill="none"><path fill="#000" d="M151.19 495.26c1.07 7.64-4.02 14.77-11.36 15.94-7.34 1.16-14.15-4.08-15.22-11.72-1.07-7.64 4.02-14.77 11.36-15.94s14.15 4.08 15.22 11.72z"/><path fill="#fff" d="M137.79 511.86c-2.86 0-5.65-.92-8.01-2.67-3.1-2.29-5.11-5.72-5.66-9.64-1.1-7.89 4.18-15.3 11.78-16.5 3.59-.57 7.19.32 10.14 2.5 3.1 2.29 5.11 5.72 5.65 9.64 1.1 7.89-4.18 15.29-11.78 16.5-.71.11-1.42.17-2.13.17h.01zm.23-27.98c-.65 0-1.31.05-1.97.16-7.06 1.12-11.97 8.02-10.94 15.37.51 3.66 2.38 6.84 5.26 8.98 2.73 2.02 6.06 2.84 9.38 2.31 7.06-1.12 11.97-8.02 10.94-15.37-.51-3.66-2.38-6.84-5.26-8.98-2.19-1.62-4.77-2.47-7.42-2.47h.01z"/><path fill="#000" d="M147.32 495.4c1.07 7.64-4.02 14.77-11.36 15.94-7.34 1.16-14.15-4.08-15.22-11.72-1.07-7.64 4.02-14.77 11.36-15.94 7.34-1.16 14.15 4.08 15.22 11.72z"/><path fill="#fff" d="M133.91 512c-2.86 0-5.65-.92-8.01-2.67-3.1-2.29-5.11-5.72-5.66-9.64-1.1-7.89 4.18-15.3 11.78-16.5 3.59-.57 7.19.32 10.14 2.5 3.1 2.3 5.11 5.72 5.66 9.64 1.1 7.89-4.18 15.29-11.78 16.5-.71.11-1.42.17-2.13.17zm.24-27.98c-.65 0-1.31.05-1.97.16-7.06 1.12-11.97 8.02-10.94 15.37.51 3.66 2.38 6.84 5.26 8.98 2.73 2.02 6.06 2.84 9.38 2.31 7.06-1.12 11.97-8.02 10.94-15.37-.51-3.66-2.38-6.84-5.26-8.98-2.19-1.62-4.77-2.47-7.42-2.47h.01z"/><path fill="#fff" d="M138.3 497.16c.32 2.33-1.23 4.51-3.47 4.86-2.24.36-4.32-1.24-4.64-3.57-.32-2.33 1.23-4.51 3.47-4.86 2.24-.36 4.32 1.24 4.64 3.57z"/><path fill="#000" d="M134.21 502.58c-.95 0-1.87-.3-2.65-.88a4.722 4.722 0 0 1-1.86-3.17c-.36-2.59 1.38-5.03 3.88-5.43 1.19-.19 2.38.11 3.35.83 1.02.76 1.68 1.88 1.86 3.17.36 2.59-1.38 5.03-3.88 5.43-.24.04-.47.06-.7.06v-.01zm.07-8.54c-.18 0-.36.01-.54.04-1.97.31-3.33 2.24-3.05 4.3.14 1.02.66 1.91 1.47 2.51.76.56 1.68.79 2.6.64 1.97-.31 3.34-2.24 3.05-4.3a3.716 3.716 0 0 0-1.47-2.51 3.45 3.45 0 0 0-2.06-.69v.01zm193.58.94c1.07 7.64-4.02 14.77-11.36 15.94-7.34 1.16-14.15-4.08-15.22-11.72-1.07-7.64 4.02-14.77 11.36-15.94 7.34-1.16 14.15 4.08 15.22 11.72z"/><path fill="#fff" d="M314.45 511.58c-2.86 0-5.65-.92-8.01-2.67-3.1-2.29-5.11-5.72-5.66-9.64-1.1-7.89 4.18-15.29 11.78-16.5 3.59-.57 7.19.32 10.14 2.5 3.1 2.3 5.11 5.72 5.66 9.65 1.1 7.89-4.18 15.29-11.78 16.5-.71.11-1.42.17-2.12.17l-.01-.01zm.24-27.98c-.65 0-1.31.05-1.97.16-7.06 1.12-11.97 8.02-10.94 15.37.51 3.66 2.38 6.84 5.26 8.98 2.73 2.02 6.06 2.84 9.38 2.31 7.06-1.12 11.97-8.02 10.94-15.37-.51-3.66-2.38-6.85-5.26-8.98-2.19-1.62-4.77-2.47-7.41-2.47z"/><path fill="#000" d="M323.98 495.121c1.07 7.64-4.02 14.77-11.36 15.94-7.34 1.16-14.15-4.08-15.22-11.72-1.07-7.64 4.02-14.77 11.36-15.94 7.34-1.16 14.15 4.08 15.22 11.72z"/><path fill="#fff" d="M310.58 511.72c-2.86 0-5.65-.92-8.01-2.67-3.1-2.3-5.11-5.72-5.66-9.64-1.1-7.89 4.18-15.29 11.78-16.5 3.59-.57 7.19.32 10.14 2.5 3.1 2.3 5.11 5.72 5.66 9.65 1.1 7.89-4.18 15.29-11.78 16.5-.71.11-1.42.17-2.13.17v-.01zm.23-27.98c-.65 0-1.31.05-1.97.16-7.06 1.12-11.97 8.02-10.94 15.37.51 3.66 2.38 6.85 5.26 8.98 2.73 2.02 6.06 2.84 9.38 2.31 7.06-1.12 11.97-8.02 10.94-15.37-.51-3.66-2.38-6.85-5.26-8.98-2.19-1.62-4.77-2.47-7.41-2.47z"/><path fill="#fff" d="M314.96 496.74c.34 2.44-1.28 4.72-3.63 5.09-2.35.37-4.52-1.3-4.86-3.75-.34-2.45 1.28-4.72 3.63-5.09 2.35-.37 4.52 1.3 4.86 3.75z"/><path fill="#000" d="M310.68 502.39c-.99 0-1.95-.32-2.76-.92-1.06-.79-1.75-1.96-1.94-3.31-.38-2.71 1.44-5.24 4.05-5.66 1.23-.19 2.48.11 3.5.86 1.06.79 1.75 1.96 1.94 3.31.38 2.71-1.44 5.24-4.05 5.66-.24.04-.49.06-.73.06h-.01zm.07-8.95c-.19 0-.38.01-.57.05-2.07.33-3.51 2.36-3.21 4.53.15 1.08.7 2.02 1.55 2.64.8.59 1.77.83 2.74.68 2.07-.33 3.51-2.36 3.21-4.53-.15-1.08-.7-2.02-1.55-2.64-.64-.47-1.39-.72-2.17-.72v-.01z"/><path fill="#B9A4E9" d="M70.06 454.08c-.07 13.94 68.55 26.1 153.26 27.16 84.71 1.06 153.44-9.38 153.5-23.32.04-8.17-7.83-26.25-65.03-18.04-41 5.88-60.37 2.35-95.45 1.91-33.03-.41-56.72-.7-81.67-4.09-47.15-6.4-64.57 7.89-64.61 16.39v-.01z"/><path fill="#000" d="M235.18 481.82c-3.92 0-7.87-.02-11.86-.07-86.29-1.08-153.82-13.23-153.75-27.66.01-2.81 1.73-5.84 4.84-8.54 4.95-4.3 20.73-13.72 60.34-8.35 24.89 3.38 48.62 3.67 81.46 4.08h.15c9.35.12 17.52.45 25.41.78 21.42.88 39.92 1.63 69.96-2.68 37.09-5.32 52.95.6 59.73 6.5 5.14 4.48 5.89 9.47 5.87 12.04 0 1.52-.75 3.02-2.21 4.46-11.72 11.52-69.62 19.44-139.94 19.44zM70.06 454.08h.5c-.03 6.38 16.16 12.91 44.43 17.92 28.92 5.12 67.4 8.23 108.34 8.74 74.14.92 139.08-7.27 151.08-19.07 1.26-1.24 1.91-2.5 1.91-3.75.01-2.4-.69-7.07-5.53-11.28-6.62-5.77-22.22-11.53-58.93-6.26-30.12 4.32-48.67 3.56-70.14 2.69-7.89-.32-16.04-.66-25.38-.77h-.15c-32.88-.41-56.63-.71-81.58-4.09-39.21-5.32-54.71 3.9-59.55 8.11-2.88 2.51-4.48 5.27-4.49 7.79h-.5l-.01-.03z"/><path fill="#fff" d="M68.86 458.81c1.27 16.63 69.71 27.72 154.43 28.78 84.72 1.06 152.46-8.38 155.05-24.67.45-2.8-1.65-6.5-1.6-5.68.79 13.94-68.7 25.08-153.42 24.02-84.72-1.06-153.96-13.24-153.27-27.17 0-.01-1.34 2.79-1.19 4.73v-.01z"/><path fill="#000" d="M235.95 488.16c-4.18 0-8.41-.03-12.67-.08-73.61-.92-153.49-10.46-154.92-29.24-.14-1.86 1.08-4.98 1.42-5.19l.81-.51-.05.96c-.06 1.22.5 2.48 1.68 3.73 11.4 12.13 76.35 21.98 151.09 22.92 74.55.93 139.57-7.57 151.24-19.78 1.18-1.24 1.75-2.49 1.68-3.71-.02-.36.17-.52.28-.58l.27-.15.32.2c.6.42 2.12 3.76 1.72 6.27-1.62 10.2-26.54 16.11-47.15 19.26-25.15 3.85-58.78 5.91-95.74 5.91l.02-.01zm-166.1-32.2c-.29.88-.55 1.95-.49 2.81 1.17 15.31 65.91 27.21 153.93 28.31 88.55 1.1 152.1-8.87 154.55-24.25.23-1.45-.28-3.14-.74-4.22-.26 1.04-.87 2.06-1.82 3.05-11.85 12.39-77.19 21.02-151.98 20.09-76.21-.95-140.06-10.72-151.81-23.23-.79-.84-1.34-1.7-1.65-2.56h.01zm83.06-10.35c.05 1.08-.77 1.99-1.83 2.04-1.06.05-1.96-.78-2.02-1.86-.05-1.08.77-1.99 1.83-2.04 1.06-.05 1.96.78 2.02 1.86z"/><path fill="#000" d="M150.99 448.16c-1.28 0-2.36-1.02-2.42-2.34-.03-.65.19-1.28.62-1.76a2.36 2.36 0 0 1 1.68-.8c.65-.03 1.27.19 1.75.64.48.44.76 1.04.79 1.7.03.65-.19 1.28-.62 1.76-.44.49-1.03.77-1.68.8h-.12zm0-3.91h-.07c-.38.02-.73.19-.98.47-.26.29-.39.66-.37 1.05.04.8.7 1.41 1.49 1.38.38-.02.73-.19.98-.47a1.478 1.478 0 0 0-.1-2.06 1.4 1.4 0 0 0-.95-.37zm-11.17 17.08c.05 1.08-.77 1.99-1.83 2.04-1.06.05-1.96-.78-2.02-1.86-.05-1.08.77-1.99 1.83-2.04 1.06-.05 1.96.78 2.02 1.86z"/><path fill="#000" d="M137.89 463.88c-.6 0-1.18-.22-1.63-.64-.48-.44-.76-1.04-.79-1.7-.07-1.35.97-2.5 2.3-2.57 1.32-.07 2.48.98 2.54 2.33.07 1.35-.97 2.5-2.3 2.57h-.12v.01zm0-3.91h-.07c-.78.04-1.39.72-1.35 1.52.02.39.19.75.47 1.01.28.26.65.39 1.02.37.78-.04 1.39-.72 1.35-1.52-.04-.78-.67-1.38-1.42-1.38zm172.24-11.67c-.38 1.01.11 2.13 1.1 2.51.99.38 2.11-.13 2.49-1.14.38-1.01-.11-2.13-1.1-2.51-.99-.38-2.11.13-2.49 1.14z"/><path fill="#000" d="M311.91 451.43c-.28 0-.57-.05-.85-.16-.61-.23-1.09-.69-1.35-1.29-.26-.6-.28-1.26-.04-1.87.48-1.26 1.89-1.91 3.14-1.43 1.25.48 1.87 1.89 1.39 3.16-.37.98-1.3 1.59-2.29 1.59zm-1.31-2.95c-.14.36-.13.76.03 1.11.15.35.43.62.79.75.74.28 1.56-.1 1.85-.85.29-.75-.08-1.58-.81-1.86-.73-.28-1.56.1-1.85.85h-.01zm7.11 18.83c-.38 1.01.11 2.13 1.1 2.51.99.38 2.11-.13 2.49-1.14.38-1.01-.11-2.13-1.1-2.51-.99-.38-2.11.13-2.49 1.14z"/><path fill="#000" d="M319.49 470.44c-.28 0-.57-.05-.85-.16-1.25-.48-1.87-1.89-1.39-3.16.23-.61.69-1.1 1.28-1.37a2.407 2.407 0 0 1 3.21 1.23c.26.6.28 1.26.04 1.87-.37.98-1.31 1.59-2.29 1.59zm-1.31-2.96c-.29.75.08 1.58.81 1.86.74.28 1.56-.1 1.85-.85.14-.36.13-.76-.03-1.11-.15-.35-.43-.62-.79-.75-.35-.13-.74-.12-1.09.04-.35.16-.62.45-.76.81h.01zM79.55 485.07H20.48v1h59.07v-1zm-33.85 7.92H.31v1H45.7v-1zm247.03-132.23c-2.64-20.08-14.99-33.79-29.09-47.21-10.26-9.76-24.57 6.89-14.35 16.62 12.35 11.75 22.76 23.3 21.95 41.5-.68 15.37-6.76 30.15-8.84 45.36-1.91 13.96 19.62 18.29 21.54 4.27 2.76-20.18 11.5-39.85 8.79-60.54z"/><path fill="#078450" d="m290.77 419.44-30.38.77 1.18 48.3 84.17-.24.3-11.39s-6.28-21.61-55.5-15.22l.23-22.22z"/><path fill="#000" d="M261.09 469.01v-.49l-1.21-48.8 31.4-.79-.23 22.16c48.57-6.13 55.22 14.76 55.48 15.65l.02.08-.32 11.95h-.49l-84.65.24zm-.18-48.31 1.16 47.31 83.19-.24.29-10.82c-.46-1.31-8.15-20.87-54.94-14.8l-.57.07.23-22.27-29.36.74v.01z"/><path fill="#fff" d="M318.61 441.16c23.75 3.09 27.44 15.72 27.44 15.72l-.3 11.39-33.89.1c.87-9.35 2.88-18.46 6.76-27.2l-.01-.01z"/><path fill="#000" d="m311.3 468.87.05-.55c.95-10.24 3.17-19.19 6.8-27.36l.15-.34.37.05c23.8 3.1 27.7 15.54 27.86 16.07l.02.08-.32 11.95-34.93.1zm7.61-27.16c-3.42 7.83-5.56 16.4-6.51 26.15l32.85-.09.29-10.82c-.16-.47-1.25-3.33-4.71-6.46s-10.07-7.18-21.92-8.79v.01z"/><path fill="#000" d="m261.29 456.42 84.76.46-.31 11.39-84.16.24-.29-12.09z"/><path fill="#000" d="m261.09 469.01-.31-13.09 85.78.47-.33 12.39h-.49l-84.66.24.01-.01zm.72-12.09.26 11.08 83.19-.24.28-10.39-83.73-.46v.01zm11.464-29.968-.013 1 17.269.22.012-1-17.268-.22zm.527 8.696-.013.999 17.268.224.013-1-17.268-.223zM202.05 318.05c-7.54-11.95-24.44 2.1-16.99 13.9 7.59 12.03 31.38 37.28 5.71 42.38-19.59 3.89-41.15-5.98-59.58-11.47-13.47-4.01-21.22 16.53-7.65 20.58 26.36 7.86 61.46 23.06 87.39 6.26 30.09-19.49 4.3-50.77-8.87-71.65h-.01z"/><path fill="#078450" d="m149.69 395.83 11.74-28.03-44.55-18.7-34.24 76.89 10.27 4.94s22.29 3.12 36.61-44.41l20.18 9.31h-.01z"/><path fill="#000" d="M93.91 431.48c-.6 0-.97-.04-1.08-.06l-.15-.04-10.7-5.15 34.64-77.78 45.46 19.08-12.13 28.97-20.12-9.28c-12.67 41.51-31.23 44.27-35.92 44.27v-.01zm-.86-1.04c1.38.12 22.38 1.11 35.99-44.06l.17-.55 20.23 9.33 11.34-27.09-43.64-18.31-33.84 75.99 9.75 4.69z"/><path fill="#fff" d="M118.48 412.33c-12.54 20.4-25.57 18.6-25.57 18.6l-10.27-4.94 13.79-30.96c8.18 4.62 15.66 10.19 22.05 17.3z"/><path fill="#000" d="M93.83 431.48c-.57 0-.92-.04-1-.05l-.15-.04-10.7-5.15 14.21-31.91.48.27c8.95 5.06 16.2 10.75 22.18 17.4l.25.28-.2.32c-10.73 17.45-21.74 18.89-25.07 18.89v-.01zm-.78-1.04c.5.04 3.55.22 7.82-1.65 4.27-1.88 10.67-6.25 16.99-16.4-5.75-6.33-12.69-11.79-21.2-16.65l-13.37 30.01 9.75 4.69h.01z"/><path fill="#000" d="m128.03 353.79-35.12 77.14-10.27-4.94 34.24-76.89 11.15 4.69z"/><path fill="#000" d="m93.15 431.6-11.17-5.37 34.64-77.78 12.07 5.08-35.55 78.07h.01zm-9.85-5.85 9.37 4.51 34.69-76.2-10.22-4.3-33.84 75.99zm65.768-49.343-7.277 15.662.907.422 7.277-15.662-.907-.422zm-8.076-3.098-7.277 15.662.907.422 7.277-15.663-.907-.421zM383.13 136.1c-5.59 1.13-10.28 7.3-8.69 13.12 4.54 16.58 10.19 32.9 13.52 49.79.79 4.03 1.45 8.1 1.92 12.18.04.31.21 2.15.28 2.72 0 .55.08 2.62.07 2.99a42.51 42.51 0 0 1-.18 3.38c-.1.65-.15 1.01-.14 1.09-.12.43-.22.86-.37 1.28-.05.13-.1.25-.15.38 0 .01-.02.03-.03.05-.36.04-.94.08-1.44.02.76.08-2.09-.6-2.3-.67-2.73-1.02-5.23-2.78-7.61-4.54-5.11-3.76-9.39-7.71-14.02-11.92-11.78-10.7-21.63-23.28-31.08-36.02-3.58-4.83-11.41-4.81-15.69-1.08-4.83 4.21-4.67 10.85-1.08 15.69 8.59 11.59 17.5 22.98 27.89 33.02 9.37 9.07 19.22 18.9 31.61 24.71 12.77 5.99 28.41 2.85 34.3-10.85 4.47-10.41 2.28-23.31.35-34.06-3.22-17.88-9.26-35.1-14.05-52.59-1.59-5.79-6.94-9.94-13.12-8.69h.01z"/><path fill="#fff" d="M384.29 124.26s-18.24-33.32-29.91-26.34c-9.18 5.49 15 35.01 15 35.01l14.91-8.66v-.01z"/><path fill="#000" d="m369.27 133.57-.27-.33c-.77-.93-18.73-22.99-17.09-32.4.26-1.51 1.01-2.64 2.22-3.36 1.79-1.07 3.83-1.31 6.07-.7 11.18 3.04 24 26.25 24.54 27.24l.23.43-15.7 9.12zm-11.41-36.11c-1.16 0-2.24.3-3.23.89-.96.57-1.53 1.45-1.74 2.67-1.46 8.36 14.34 28.43 16.61 31.26l14.11-8.2c-1.82-3.22-13.72-23.62-23.68-26.33a7.99 7.99 0 0 0-2.06-.29h-.01z"/><path fill="#fff" d="M396.92 119.97s3.17-36.94-10.28-34.33c-13.45 2.61-4.08 37.93-4.08 37.93l14.36-3.61v.01z"/><path fill="#000" d="m382.2 124.18-.13-.48c-.27-1.03-6.63-25.37-.65-34.92 1.25-2 2.97-3.22 5.12-3.64 2.14-.41 4.02.09 5.58 1.49 7.48 6.73 5.38 32.29 5.29 33.37l-.03.36-15.19 3.81.01.01zM387.97 86c-.4 0-.81.04-1.23.12-1.86.36-3.36 1.43-4.46 3.19-5.31 8.47-.23 30.15.64 33.65l13.53-3.4c.23-3.15 1.67-26.2-4.99-32.19-1.03-.92-2.18-1.38-3.49-1.38V86z"/><path fill="#fff" d="M365.91 136.28s-5.54 19.1 12.04 23.14c0 0-10.53 7.55.89 10.59 9.91 2.63 42.58-2.68 26.65-15.64 0 0 16.43-14.81.15-31.63l-39.73 13.54z"/><path fill="#000" d="M385.33 171.17c-2.61 0-4.93-.22-6.62-.67-3.39-.9-5.29-2.32-5.63-4.21-.49-2.66 2.32-5.41 3.76-6.63-4.52-1.25-7.85-3.64-9.9-7.13-4.15-7.06-1.62-16.01-1.51-16.39l.07-.25 40.28-13.72.22.23c5.06 5.23 7.53 10.8 7.33 16.57-.27 8.01-5.54 13.83-7.09 15.38 3.71 3.16 4.89 6.13 3.51 8.83-2.7 5.3-15.36 8-24.42 8v-.01zm-19-34.5c-.37 1.48-2.08 9.3 1.48 15.36 2.05 3.49 5.5 5.81 10.25 6.91l1.08.25-.9.65s-4.7 3.42-4.18 6.28c.27 1.47 1.92 2.62 4.91 3.42 7.12 1.9 26.66-.47 29.89-6.81 1.19-2.33-.05-5.01-3.68-7.96l-.45-.37.43-.39c.07-.06 6.88-6.31 7.17-15.08.18-5.4-2.12-10.65-6.83-15.6l-39.17 13.35v-.01z"/><path fill="#000" d="M383.83 160.39c-3.09 0-5.8-.44-5.97-.47l.16-.99c.06 0 5.58.91 9.71.15l.18.98c-1.31.24-2.73.33-4.09.33h.01zm13.33-2.67-.14-.99s3.81-.56 8.24-2.8l.45.89c-4.59 2.32-8.39 2.87-8.55 2.9z"/><path fill="#fff" d="M404.6 113.23c-2.49-.14-5.23 1.28-6.82 3.22-2.36 2.89-2.75 7.02-2.52 10.58.2 3.09 1.27 6.67 4.75 7.55 4.99 1.26 7.94-3.12 9.25-7.11 1.23-3.73 1.66-8.49-.65-11.93-1.03-1.53-2.48-2.22-4.02-2.31h.01z"/><path fill="#000" d="M401.67 135.28c-.58 0-1.18-.08-1.79-.23-3.02-.76-4.85-3.6-5.13-8-.31-4.74.58-8.42 2.63-10.93 1.79-2.18 4.69-3.55 7.24-3.4 1.84.11 3.36.98 4.4 2.53 2.9 4.31 1.46 10.08.71 12.36-1.62 4.92-4.56 7.67-8.07 7.67h.01zm2.59-21.56c-2.13 0-4.59 1.22-6.09 3.05-1.89 2.3-2.7 5.75-2.41 10.23.18 2.78 1.08 6.26 4.38 7.09 5.35 1.35 7.84-4.29 8.66-6.78.71-2.14 2.06-7.55-.59-11.49-.86-1.28-2.11-2-3.63-2.09h-.31l-.01-.01z"/><path fill="#fff" d="M365.81 136.52c3.91-9.43 20.04-14.76 26.06-16.53 3.44-1.01 7.11-1.53 9.47 1.09 7.77 8.64-14.27 20.42-14.27 20.42s4.9 6.4-.78 10.74"/><path fill="#000" d="m386.59 152.63-.61-.8c1.45-1.1 2.29-2.45 2.5-4 .41-3.09-1.79-6.01-1.81-6.03l-.36-.47.52-.28c.14-.08 14.31-7.73 15.57-14.94.31-1.74-.17-3.28-1.44-4.7-2.25-2.5-5.79-1.88-8.96-.95-8.08 2.38-22.17 7.65-25.74 16.24l-.92-.38c3.73-8.98 18.13-14.39 26.38-16.82 3.27-.96 7.36-1.69 9.99 1.24 1.48 1.64 2.04 3.5 1.69 5.54-1.22 6.98-12.99 13.92-15.6 15.38.66 1.02 2.05 3.56 1.68 6.3-.24 1.82-1.21 3.39-2.88 4.66l-.01.01z"/><path fill="#FF8717" d="M329.6 215.38c-3.04-28.66-15.48-49.48-37.31-62.45-14.36-8.38-31.11-12.79-50.22-13.26-4.83-.04-9.64.07-14.38.37-1.33.1-2.67.2-4.03.33-6.4.62-11.79 1.56-16.16 2.82-.94.27-1.89.01-2.56-.57-6.86-.13-12.7-3.94-15-10.72-2.46-7.25 2.87-16.76 10.87-18.28 32.66-6.2 64.8-3.07 97.43 1.34 1.05-7.12 1.12-15.06.19-23.83-1.12-10.55-3.64-20.03-7.55-28.43a2.6 2.6 0 0 0-1.37-1.3c-12.38-5.1-29.47-8.54-51.3-10.32-1.3-.11-2.34-1.07-2.47-2.31l-2.63-24.79c-.1-.91-.69-1.72-1.56-2.09-15.28-6.64-28.96-16.82-45.69-15.2-16.72 1.62-33.22 14.7-44.82 23.92a2.52 2.52 0 0 0-.95 2.24l1.79 16.85c.18 1.69 1.99 2.75 3.65 2.15 3.86-1.38 9.38-4.31 11.25-4.49 4.19-.4 3.83 3.4 4.23 7.13.13 1.26-.73 2.92-2.04 2.73-20.44-2.93-49.39 17.49-60.35 27.94-17.8 16.99-26.39 40.19-23.75 65.12 1.41 13.33 6.1 24.93 14.06 34.8 7.74 9.6 17.33 15.9 28.77 18.9.61.16 1.26.13 1.83-.11 7.11-2.92 15.47-9.76 25.13-10.69 20.95-2.02 38.32 6.79 52.06 16.64 5.19 3.67 9.33 7.82 12.43 12.43 3.1 4.62 4.84 8.72 5.22 12.32.33 3.08-1.48 5.03-5.41 5.86-1.24.26-2.5-.36-3.04-1.46-6.13-12.45-14.27-21.14-24.43-26.07-10.64-5.17-19.42-13.15-35.13-11.64-15.71 1.52-28.98 8.66-38.69 19.57-9.71 10.9-18.17 22.28-15.81 45.65 2.35 23.18 21.37 41.66 45.07 47.22 11.32 2.65 23.23 4.25 35.75 4.78 1.34.06 2.45 1.04 2.58 2.31l2.39 22.5c.1.91.69 1.72 1.56 2.1 15.59 6.77 33.03 10.72 49.78 7.34 35.96-7.24 57.94-23.95 57.94-25.79l-1.84-15.53c-.1-.88-.7-1.63-1.56-1.96l-14.15-5.46c19.66-7.91 31.64-17.76 42.66-31.48 13.9-17.3 19.74-36.35 17.54-57.14l.02.01z"/><path fill="#000" d="M216.33 354.49c-11.59 0-24.08-2.88-37.3-8.62-1.03-.45-1.75-1.41-1.86-2.5l-2.39-22.5c-.11-1.03-1-1.82-2.11-1.87-12.49-.53-24.55-2.14-35.84-4.79-24.89-5.84-43.16-24.99-45.45-47.66-2.36-23.36 5.82-34.67 15.93-46.03 10.17-11.42 23.66-18.25 39.02-19.73 12.36-1.19 20.55 3.45 28.47 7.95 2.24 1.27 4.56 2.59 6.93 3.74 10.21 4.96 18.51 13.81 24.66 26.3.44.9 1.49 1.4 2.49 1.19 3.67-.78 5.31-2.52 5.01-5.32-.37-3.5-2.1-7.57-5.14-12.1-3.05-4.54-7.19-8.68-12.3-12.31-18.07-12.96-34.52-18.21-51.73-16.55-6.41.62-12.34 3.93-17.58 6.86-2.6 1.46-5.07 2.83-7.41 3.8-.67.27-1.43.32-2.15.13-11.5-3.01-21.26-9.43-29.04-19.07-7.98-9.9-12.75-21.7-14.17-35.06-2.65-25.02 5.84-48.29 23.9-65.53 10.94-10.44 40.18-31.04 60.77-28.08.29.04.57-.06.82-.3.45-.43.72-1.22.65-1.88-.05-.51-.09-1.02-.13-1.52-.16-1.98-.3-3.85-1.29-4.68-.51-.43-1.25-.59-2.25-.49-1.01.1-3.43 1.18-5.77 2.22-1.83.82-3.73 1.66-5.36 2.24-.97.35-2.02.23-2.89-.31a3.046 3.046 0 0 1-1.43-2.26l-1.79-16.85c-.11-1.03.31-2.04 1.13-2.69 11.9-9.45 28.19-22.4 45.09-24.03 12.75-1.23 23.51 4.19 34.9 9.93 3.58 1.81 7.29 3.68 11.04 5.31 1.03.45 1.75 1.41 1.86 2.5l2.63 24.79c.1.99.95 1.78 2.01 1.86 21.77 1.78 39.08 5.27 51.45 10.36.73.3 1.31.85 1.64 1.55 3.92 8.41 6.47 18.03 7.59 28.58.93 8.76.86 16.82-.2 23.96l-.07.49-.49-.07c-30.85-4.16-63.77-7.7-97.26-1.34-3.63.69-6.92 3.15-9.02 6.75-2.04 3.5-2.6 7.57-1.47 10.88 2.16 6.37 7.59 10.25 14.53 10.38h.18l.14.12c.58.5 1.36.68 2.09.46 4.38-1.27 9.85-2.22 16.25-2.84 1.36-.13 2.7-.23 4.04-.33 4.57-.28 9.41-.41 14.42-.37 19.14.46 36.12 4.94 50.47 13.32 21.88 13 34.51 34.14 37.55 62.83 2.21 20.83-3.73 40.18-17.65 57.51-11.87 14.77-24.01 23.86-41.69 31.15l12.97 5.01c1.03.4 1.75 1.31 1.88 2.37l1.84 15.53c0 1.45-6.47 6.44-15.75 11.37-8.83 4.69-23.38 11.1-42.59 14.97-4.12.83-8.39 1.24-12.78 1.25v.02zM150.18 201.6c-1.21 0-2.45.06-3.75.18-15.1 1.46-28.36 8.17-38.37 19.4-9.96 11.18-18.01 22.31-15.69 45.27 2.25 22.24 20.21 41.04 44.68 46.78 11.23 2.63 23.23 4.24 35.66 4.77 1.61.07 2.9 1.23 3.06 2.76l2.39 22.5c.08.74.56 1.38 1.27 1.69 18.04 7.83 34.69 10.29 49.49 7.31 36.01-7.25 56.82-23.47 57.53-25.32l-1.83-15.45c-.08-.69-.56-1.29-1.25-1.56l-15.34-5.92 1.18-.47c18.14-7.3 30.44-16.37 42.45-31.32 13.75-17.11 19.61-36.22 17.43-56.78-3.01-28.36-15.48-49.25-37.07-62.07-14.2-8.29-31.02-12.73-49.98-13.19-4.97-.04-9.79.08-14.34.37-1.33.1-2.66.2-4.01.33-6.34.61-11.75 1.56-16.07 2.81-.99.29-2.05.08-2.88-.55-7.3-.2-13.01-4.32-15.29-11.06-1.21-3.58-.63-7.95 1.56-11.7 2.24-3.85 5.78-6.48 9.69-7.22 33.46-6.35 66.3-2.88 97.09 1.27.98-6.94 1.02-14.75.12-23.22-1.11-10.45-3.63-19.96-7.51-28.27-.22-.47-.61-.84-1.11-1.05-12.27-5.05-29.48-8.51-51.15-10.29-1.54-.13-2.77-1.29-2.93-2.76l-2.63-24.79c-.08-.74-.56-1.38-1.26-1.69-3.78-1.64-7.5-3.52-11.09-5.33-11.25-5.68-21.88-11.04-34.35-9.83-16.6 1.6-32.76 14.44-44.56 23.82a2.03 2.03 0 0 0-.76 1.8l1.79 16.85c.07.62.42 1.17.97 1.52.6.38 1.34.46 2.02.21 1.6-.57 3.47-1.41 5.29-2.22 2.64-1.17 4.91-2.19 6.08-2.3 1.29-.12 2.27.11 2.99.72 1.31 1.1 1.47 3.17 1.65 5.37.04.49.08.99.13 1.49.1.97-.28 2.06-.95 2.71-.47.45-1.06.66-1.66.57-20.23-2.9-49.11 17.48-59.93 27.81-17.83 17.02-26.21 40-23.59 64.7 1.4 13.17 6.09 24.79 13.95 34.54 7.63 9.47 17.23 15.77 28.51 18.73.51.13 1.05.1 1.52-.09 2.29-.94 4.73-2.3 7.3-3.74 5.32-2.97 11.35-6.34 17.97-6.98 17.47-1.68 34.12 3.63 52.4 16.73 5.21 3.69 9.43 7.92 12.55 12.56 3.13 4.66 4.92 8.88 5.3 12.55.36 3.36-1.6 5.52-5.8 6.4-1.46.31-2.94-.4-3.59-1.73-6.05-12.29-14.19-20.98-24.2-25.84-2.39-1.16-4.73-2.49-6.98-3.77-6.95-3.94-14.11-8-24.13-8l.03-.01z"/><path fill="#FC0" d="M222.87 231.49c.54 1.12 1.8 1.76 3.04 1.5 3.93-.84 5.73-2.84 5.4-5.99-.39-3.68-2.14-7.89-5.25-12.62-3.11-4.73-7.27-8.98-12.46-12.75-13.77-10.11-31.13-14.15-52.08-12.13-9.66.93-18.04 2.89-25.14 5.86-.56.24-1.19.29-1.78.13-11.48-3.09-21.11-9.56-28.89-19.42-7.99-10.12-12.7-22-14.15-35.64-2.7-25.51 4.91-46.85 22.84-64.02 14.74-14.06 35.11-24.4 61.1-31.02 1.27-.32 2.12-1.5 1.98-2.77-.4-3.82-2.7-5.53-6.89-5.12-1.88.18-4.74.97-8.6 2.38-1.66.61-3.47-.48-3.66-2.21l-1.83-17.25c-.09-.87.26-1.74.94-2.29C169.02 8.72 183.18 3.21 199.9 1.6c16.73-1.62 32.75.99 48.06 7.81.87.39 1.47 1.21 1.57 2.15l2.69 25.37c.13 1.27 1.18 2.26 2.48 2.37 21.83 1.88 38.93 5.43 51.32 10.67.62.26 1.12.74 1.39 1.34 3.93 8.6 6.47 18.3 7.62 29.09 2.13 20.12-.72 35.97-8.57 47.57-.76 1.12-2.24 1.5-3.48.9-5.78-2.79-13.87-5.03-24.27-6.72-11.7-1.9-22.65-2.36-32.84-1.38-10.19.98-16.99 2.47-20.37 4.45-3.39 1.98-4.99 3.86-4.8 5.63.01.14.03.28.05.42.23 1.6 1.86 2.66 3.45 2.19 4.37-1.28 9.76-2.23 16.16-2.85 26.95-2.6 49.85 1.73 68.68 13 21.87 13.32 34.36 34.65 37.47 63.98 2.26 21.28-3.54 40.76-17.4 58.43-13.54 17.26-33.65 30-60.34 38.21-1.21.37-2 1.5-1.88 2.74 0 .04 0 .07.01.11.4 3.82 2.7 5.53 6.89 5.12 1.88-.18 4.74-.97 8.6-2.38 1.66-.61 3.47.48 3.66 2.21l1.83 17.25c.09.87-.26 1.74-.94 2.29-11.58 9.41-26.79 14.33-42.85 19.04-24.19 7.09-49.31.89-49.41-.05l-2.26-35.44c-.14-1.31-1.24-2.31-2.59-2.37-12.01-.55-23.47-2.1-34.38-4.64-24.51-5.72-43.36-24.89-46.59-48.77-.08-.63-.16-1.26-.23-1.89-1.61-15.14 2.43-28.28 12.12-39.42 9.68-11.13 22.38-17.46 38.09-18.98 15.71-1.52 28.89.38 39.54 5.69 10.17 5.07 18.34 13.98 24.5 26.74l-.01.01z"/><path fill="#000" d="M219.33 354.44c-13.42 0-23.73-2.58-24.84-3.33-.08-.05-.31-.2-.34-.49l-2.26-35.46c-.11-1.04-1-1.85-2.11-1.9-11.99-.55-23.58-2.11-34.47-4.65-24.9-5.81-43.78-25.58-46.97-49.19-.09-.63-.16-1.27-.23-1.9-1.61-15.22 2.5-28.61 12.24-39.8 9.73-11.18 22.65-17.62 38.42-19.15 15.74-1.52 29.13.41 39.82 5.74 10.23 5.1 18.54 14.17 24.73 26.97.45.92 1.49 1.44 2.48 1.23 3.67-.79 5.31-2.57 5.01-5.44-.38-3.59-2.12-7.76-5.17-12.4-3.06-4.66-7.21-8.9-12.34-12.62-13.61-9.99-31.01-14.04-51.74-12.03-9.57.92-17.98 2.89-25 5.83-.67.28-1.42.34-2.1.15-11.53-3.1-21.34-9.69-29.15-19.59-8.01-10.14-12.8-22.22-14.25-35.9-2.71-25.55 5.03-47.23 22.99-64.43 14.74-14.05 35.37-24.53 61.32-31.15 1.04-.27 1.72-1.21 1.61-2.24-.37-3.52-2.45-5.05-6.35-4.68-1.82.18-4.68.97-8.48 2.35-.96.35-2 .24-2.86-.3a3.129 3.129 0 0 1-1.47-2.33l-1.83-17.25a3.12 3.12 0 0 1 1.12-2.74c11.61-9.43 25.98-15.03 42.72-16.64 16.74-1.62 32.99 1.02 48.31 7.85A3.18 3.18 0 0 1 250 11.5l2.69 25.37c.11 1.02.96 1.83 2.02 1.92 21.78 1.87 39.1 5.47 51.48 10.71.74.31 1.32.88 1.65 1.6 3.94 8.61 6.51 18.45 7.66 29.25 2.14 20.14-.78 36.26-8.65 47.91-.89 1.31-2.65 1.77-4.11 1.07-5.71-2.76-13.83-5-24.13-6.68-11.6-1.89-22.61-2.35-32.71-1.37-10.07.97-16.86 2.45-20.17 4.38-3.19 1.86-4.72 3.6-4.55 5.15.01.13.03.27.05.4.09.62.45 1.17.99 1.52.54.35 1.2.45 1.82.26 4.38-1.29 9.85-2.25 16.25-2.87 26.94-2.6 50.15 1.8 68.98 13.07 21.91 13.35 34.6 35 37.71 64.36 2.26 21.32-3.63 41.1-17.51 58.79-13.54 17.27-33.92 30.18-60.58 38.38-.98.3-1.63 1.23-1.53 2.21v.1c.39 3.52 2.45 5.06 6.36 4.68 1.82-.18 4.68-.97 8.48-2.35.95-.35 2-.24 2.86.3.83.52 1.37 1.37 1.47 2.33l1.83 17.25a3.12 3.12 0 0 1-1.12 2.74c-11.61 9.43-26.98 14.43-43.03 19.13-8.55 2.5-17.22 3.34-24.87 3.34l-.01-.01zm-24.19-4.1c2.2 1.25 25.79 6.53 48.79-.21 15.95-4.67 31.22-9.64 42.68-18.94.55-.45.83-1.14.76-1.85l-1.83-17.25c-.07-.65-.43-1.23-1-1.59-.6-.37-1.32-.45-1.99-.21-3.88 1.41-6.81 2.22-8.72 2.41-4.43.43-7.01-1.5-7.44-5.57v-.1c-.16-1.45.78-2.83 2.22-3.27 26.46-8.14 46.68-20.94 60.09-38.04 13.71-17.48 19.53-37.02 17.3-58.07-3.08-29.03-15.61-50.43-37.23-63.61-18.65-11.16-41.65-15.52-68.37-12.93-6.34.61-11.74 1.57-16.06 2.83-.89.26-1.85.12-2.64-.38-.78-.5-1.31-1.31-1.44-2.22-.02-.15-.04-.29-.05-.44-.21-2.01 1.44-4.01 5.04-6.12 3.44-2.01 10.36-3.53 20.58-4.52 10.19-.98 21.28-.52 32.97 1.38 10.4 1.69 18.61 3.97 24.41 6.76 1.01.49 2.23.17 2.84-.73 7.74-11.44 10.6-27.34 8.49-47.24-1.13-10.69-3.68-20.43-7.57-28.94a2.15 2.15 0 0 0-1.13-1.09c-12.28-5.2-29.5-8.77-51.17-10.64-1.54-.13-2.77-1.32-2.93-2.81l-2.69-25.37c-.08-.76-.57-1.43-1.27-1.74-15.15-6.76-31.23-9.37-47.8-7.77-16.54 1.6-30.74 7.12-42.19 16.42-.55.45-.84 1.14-.76 1.85l1.83 17.25c.07.65.43 1.23 1 1.59.6.37 1.32.45 1.98.21 3.88-1.41 6.81-2.22 8.72-2.41 4.43-.43 7.01 1.5 7.44 5.57.16 1.53-.83 2.92-2.36 3.31-25.78 6.57-46.27 16.97-60.87 30.9-17.73 16.97-25.36 38.37-22.69 63.6 1.43 13.48 6.15 25.39 14.04 35.38 7.67 9.72 17.31 16.2 28.63 19.24.47.12.99.09 1.45-.11 7.11-2.98 15.62-4.97 25.29-5.9 20.98-2.03 38.61 2.09 52.42 12.22 5.22 3.79 9.46 8.12 12.58 12.88 3.14 4.77 4.94 9.1 5.33 12.84.36 3.43-1.58 5.63-5.79 6.53-1.46.31-2.94-.41-3.6-1.77-6.08-12.59-14.25-21.51-24.27-26.5-10.52-5.24-23.73-7.14-39.27-5.64-15.51 1.5-28.21 7.83-37.76 18.81-9.54 10.97-13.58 24.11-12 39.03.07.63.14 1.25.23 1.87 3.14 23.21 21.71 42.64 46.21 48.35 10.83 2.53 22.36 4.08 34.29 4.63 1.61.07 2.9 1.26 3.06 2.82l2.24 35.26-.02.04z"/><path fill="#FF4A00" d="M207.42 251.49c.48.04.81.5.7.96l-12.99 55.98-2.5 10.79-2.19 9.42c-.09.38-.44.64-.83.61l-35.57-3c-.4-.03-.7-.36-.72-.75l-.37-9.84-.42-11.05-2.15-57.19c-.02-.47.38-.85.85-.81l56.2 4.89-.01-.01z"/><path fill="#000" d="M189.67 329.711h-.1l-35.57-3a1.24 1.24 0 0 1-1.14-1.19l-2.94-78.08c-.01-.36.13-.7.39-.95s.61-.37.97-.34l56.2 4.89a1.253 1.253 0 0 1 1.11 1.52l-17.69 76.19c-.13.56-.64.96-1.21.96h-.02zm-38.52-82.66c-.11 0-.19.06-.22.09-.04.04-.11.12-.1.25l2.94 78.08c0 .17.14.3.3.31l35.57 3c.15.01.31-.09.35-.25l17.69-76.19a.345.345 0 0 0-.05-.27.306.306 0 0 0-.24-.13l-56.2-4.89h-.04z"/><path fill="#fff" d="M208.44 255.631s-5.5 5.49-30.48 2.9c-24.69-2.57-28.33-8.49-28.33-8.49l.71-3.23s-.01.06-.01.09c-.32 3.83 12.39 8.18 28.37 9.71 15.48 1.47 28.36-.24 29.45-3.83 0-.03.04-.03.05 0l.24 2.86v-.01z"/><path fill="#000" d="M190.28 259.68c-3.47 0-7.56-.2-12.36-.7-24.63-2.56-28.52-8.46-28.67-8.71l-.1-.16.83-3.77h.95l-.13.57c-.26 3.15 10.91 7.6 27.96 9.23 16.76 1.6 28.08-.58 28.96-3.51l.11-.37.79.07.04.41.26 3.06-.15.15c-.19.19-3.94 3.73-18.49 3.73zm-40.16-9.75c.74.87 5.92 5.86 27.88 8.15 22.19 2.3 28.9-1.85 29.96-2.64l-.12-1.38c-3.16 3.07-14.96 4.36-29.18 3.01-12.63-1.2-25.47-4.56-28.24-8.48l-.3 1.35v-.01z"/><path fill="#fff" d="M208.18 252.05c-.34 3.78-13.57 5.72-29.56 4.33-15.99-1.39-28.67-5.59-28.33-9.37.34-3.78 13.57-5.72 29.56-4.33 15.99 1.39 28.67 5.59 28.33 9.37z"/><path fill="#000" d="M188.48 257.27c-3.21 0-6.57-.15-9.9-.44-13.59-1.19-25.11-4.43-28.01-7.88-.55-.66-.8-1.33-.74-1.99.41-4.57 15.6-6 30.05-4.74 13.59 1.19 25.11 4.43 28.01 7.88.55.66.8 1.33.74 1.99-.32 3.52-9.4 5.18-20.16 5.18h.01zm-18.83-14.6c-11.39 0-18.69 1.94-18.91 4.37-.04.41.14.85.53 1.32 2.71 3.23 14.22 6.41 27.38 7.56 17.04 1.49 28.79-.82 29.06-3.91.04-.41-.14-.85-.53-1.32-2.71-3.23-14.23-6.41-27.38-7.56-3.65-.32-7.05-.46-10.15-.46z"/><path fill="#000" d="M183.63 249.281c-.03.38-.81.67-1.99.79-.12 0-.24.02-.37.03-.58.04-1.22.03-1.9-.01-.84-.05-1.62-.18-2.26-.33-1.14-.27-1.88-.66-1.86-1.04.03-.44 1.04-.75 2.49-.83.54-.02 1.15-.02 1.78.02h.01c1.04.07 1.99.23 2.71.45.88.26 1.41.59 1.39.92z"/><path fill="#000" d="M180.43 250.58c-.36 0-.72-.01-1.1-.04-.82-.05-1.62-.17-2.34-.34-1.51-.36-2.25-.87-2.21-1.52.05-.72 1.03-1.14 2.92-1.26.58-.02 1.21-.02 1.83.02 1.02.07 2 .23 2.76.45l.07.02c1.19.35 1.75.81 1.72 1.39-.05.65-.85 1.06-2.4 1.22-.13 0-.23.02-.34.03-.3.02-.61.03-.92.03h.01zm-4.68-1.83c.15.12.57.35 1.45.56.67.16 1.42.27 2.19.32.66.04 1.28.05 1.84.01.14-.01.26-.03.37-.03.89-.09 1.34-.27 1.5-.37-.12-.1-.39-.26-.94-.43l-.07-.02c-.71-.21-1.64-.37-2.6-.43-.6-.04-1.2-.04-1.74-.02-1.22.07-1.8.28-2 .41z"/><path fill="#79CC9E" d="m177.42 248.84 17.91-37.64 28.07 2.12-.78 3.47-24.63-1.49-16.57 34.04-4-.5z"/><path fill="#000" d="m181.69 249.83-4.95-.62 18.32-38.5 28.91 2.18-.98 4.37-24.72-1.49-16.58 34.05v.01zm-3.58-1.37 3.04.38 16.56-34.01 24.55 1.48.58-2.57-27.23-2.06-17.5 36.78zm-23.12 42.98c-.17 6.29-5.43 10.58-11.43 10.81l-3.51.15h-.01c-16.95.81-33.9 2.5-50.89 1.66-10.9-.55-23.97-1.32-33.09-8.03-12.02-8.84-11.54-24.79-2.82-35.87 8.46-10.76 20.26-18.13 31.21-25.22 12.13-7.85 25.24-13.95 38.46-19.71.22-.1.45-.19.69-.27-.98.98-1.94 2-2.87 3.07-7.3 8.4-11.39 17.94-12.28 28.61-5.91 3.13-11.67 6.54-17.19 10.36-5.15 3.56-9.97 6.84-14.78 10.96-2.24 1.93-4.53 3.96-6.14 6.39-.11.16-1.2 2.37-1.2 2.2-.15.45-.23.97-.27 1.29.01.02.02.03.03.04.12.08.23.16.34.23.37.24.77.43 1.16.65.07.01.41.13 1.02.38 1.08.34 2.15.67 3.26.94.36.09 2.4.49 2.93.61.57.06 2.4.3 2.71.33 4.08.48 8.19.75 12.31.89 8.14.27 16.28.01 24.41-.42 9.05-.48 18.1-1.15 27.15-1.51 6.03-.23 10.97 5.72 10.81 11.44l-.01.02z"/><path fill="#fff" d="M190.41 304.88c-.42-.95-.8-1.46-.8-1.46 7.42-7.88.21-12.53.21-12.53 3.74-3.67 3.35-6.62 2.1-8.61-1.16-1.85-3.47-2.54-5.55-1.85-12.68 4.2-29.88-4.65-29.88-4.65s2.98-20.18-5.92-19.13c-3.27.39-8.72 9.35-11.51 17.86 0 0-4.5-6.68-9.65-.39-5.27 6.43-7.44 32.49 1.55 35.61 5.74 2 8.75-3.35 8.75-3.35 27.13 19.63 54.51 7.18 50.7-1.5z"/><path fill="#000" d="M169.87 317.26c-8.85 0-19.49-2.8-30.06-10.34-.83 1.2-3.9 4.93-8.98 3.16-2.41-.84-4.18-3.21-5.27-7.04-2.69-9.51-.28-24.5 3.54-29.17 1.61-1.96 3.35-2.92 5.13-2.83 2.22.1 3.91 1.76 4.68 2.67 2.77-8.06 8.09-17.03 11.6-17.44 1.62-.19 2.99.27 4.06 1.37 3.98 4.1 2.59 15.9 2.32 17.92 2.12 1.04 17.77 8.35 29.35 4.51 2.3-.76 4.77.07 5.99 2.01 1.2 1.91 1.83 4.97-1.84 8.77.79.63 2.57 2.3 2.89 4.91.3 2.46-.78 5.05-3.2 7.7.16.25.41.68.67 1.27 1.03 2.35 0 5.01-2.85 7.31-3.76 3.03-10.2 5.23-18.04 5.23l.01-.01zm-30.28-11.45.35.25c19.7 14.25 39.63 11.72 47.49 5.37 2.56-2.06 3.52-4.4 2.64-6.41-.39-.89-.75-1.38-.76-1.38l-.19-.26.22-.24c2.4-2.56 3.48-5.01 3.21-7.3-.36-2.95-2.9-4.63-2.92-4.65l-.4-.26.34-.33c2.94-2.88 3.62-5.62 2.04-8.13-1.04-1.65-3.14-2.35-5.1-1.7-12.69 4.2-30-4.59-30.18-4.68l-.24-.12.04-.27c.02-.13 1.93-13.43-2.08-17.55-.91-.93-2.03-1.31-3.42-1.14-2.9.34-8.34 8.9-11.19 17.6l-.24.74-.44-.64s-1.92-2.8-4.54-2.92c-1.54-.07-3.05.79-4.5 2.55-3.64 4.44-5.98 19.34-3.4 28.48 1 3.53 2.65 5.79 4.78 6.53 5.37 1.87 8.18-2.97 8.29-3.18l.21-.37-.01.01z"/><path fill="#000" d="M177.38 293.4c-7.73 0-13-2.34-13.08-2.38l.32-.69c.11.05 11.37 5.04 25.08.2l.25.72a37.623 37.623 0 0 1-12.57 2.15zm-1.04 12.16c-8.36 0-13.81-2.07-13.89-2.1l.28-.71c.11.04 11.58 4.38 26.79.3l.2.74a51.557 51.557 0 0 1-13.37 1.77h-.01zm-37.616-31.1-.39 9.502.76.031.39-9.502-.76-.031zm.487 24.747-.754.09.857 7.129.755-.091-.858-7.128z"/><path fill="#fff" d="M249.39 153.48c9.98-.77 16.33-8.35 25.49-9.23 5.14-.49 10.24.46 11.16 8.41 1.68 14.57-5.28 25.56-14.31 32.94-11.67 9.52-26.28 12.38-39.07 5.34-15.47-8.52-23.33-22.91-22.17-31.78 1.03-7.86 4.96-9.84 10.11-10.22 9.17-.68 19.65 5.25 28.79 4.54z"/><path fill="#000" d="M247.77 195.37c-5.31 0-10.52-1.31-15.36-3.98-15.57-8.57-23.63-23.16-22.44-32.31 1.15-8.8 6-10.34 10.59-10.68 4.66-.35 9.7 1 14.56 2.29 4.79 1.28 9.74 2.59 14.22 2.25 5.04-.39 9.21-2.59 13.23-4.72 3.79-2 7.72-4.08 12.25-4.51 4.55-.44 10.71 0 11.74 8.88 1.88 16.29-6.85 27.16-14.5 33.41-7.59 6.19-16.05 9.37-24.3 9.37h.01zm-25.69-45.96c-.49 0-.97.02-1.44.05-4.38.32-8.57 1.73-9.62 9.76-1.15 8.8 6.73 22.9 21.9 31.25 11.97 6.59 26.35 4.61 38.48-5.28 7.45-6.08 15.95-16.65 14.12-32.46-.9-7.81-5.86-8.4-10.58-7.94-4.33.42-7.99 2.35-11.86 4.4-4.12 2.18-8.39 4.43-13.65 4.84-4.67.36-9.7-.98-14.58-2.28-4.27-1.14-8.67-2.31-12.77-2.31v-.03z"/><path fill="#000" d="M225.61 186.73c-4.2-14.17-2.99-28.55-1.23-38.12l1.04.19c-1.73 9.46-2.93 23.66 1.21 37.63l-1.02.3zm20.08 7.63c-1.88-6.92-3.05-14.13-3.48-21.43-.38-6.46-.18-12.97.6-19.36l1.05.13c-.77 6.33-.97 12.78-.6 19.17.43 7.23 1.58 14.37 3.44 21.21l-1.02.28h.01zm21.53-5.86c-1.15-3.65-3.22-11.02-4.13-19.32-.77-6.96-.8-14.02-.12-20.98l1.05.1c-.68 6.89-.64 13.88.11 20.76.9 8.21 2.95 15.5 4.09 19.12l-1.01.32h.01z"/><path fill="#FF8717" d="M259.471 139.925c3.153-4.507 2.056-10.717-2.451-13.871s-10.717-2.056-13.871 2.451c-3.153 4.507-2.056 10.717 2.451 13.87 4.507 3.154 10.717 2.057 13.871-2.45z"/><path fill="#000" d="M251.32 144.72c-5.78 0-10.49-4.71-10.49-10.49s4.7-10.49 10.49-10.49 10.49 4.71 10.49 10.49-4.71 10.49-10.49 10.49zm0-19.92c-5.2 0-9.43 4.23-9.43 9.43 0 5.2 4.23 9.43 9.43 9.43 5.2 0 9.43-4.23 9.43-9.43 0-5.2-4.23-9.43-9.43-9.43z"/><path fill="#fff" d="M231.36 113.85c-.38 2.9-.9 5.7-1.59 8.37-2.16 8.52-5.85 15.65-10.58 20.51-.61.63-1.23 1.22-1.87 1.77-3.79 3.23-8.12 5.11-12.84 5.23-16.75.45-31.71-21.49-33.38-49.01-1.68-27.52 10.56-50.2 27.33-50.65 1.2-.02 2.4.06 3.57.24 1.54.26 3.06.7 4.54 1.31 1.59.64 3.14 1.49 4.64 2.51 2.07 1.42 4.04 3.17 5.88 5.21.03.01.05.04.06.06 7.98 8.89 13.69 23.3 14.69 39.67.32 5.13.15 10.09-.45 14.78z"/><path fill="#000" d="M203.98 150.2c-16.77 0-31.67-22.01-33.33-49.45-1.08-17.66 3.45-33.86 12.13-43.33 4.54-4.95 9.95-7.65 15.65-7.8 1.23-.02 2.46.06 3.65.25 1.57.27 3.13.72 4.65 1.34 1.57.63 3.16 1.49 4.72 2.55 2.06 1.41 4.03 3.16 5.88 5.19l.07.02.09.15c8.42 9.4 13.81 23.95 14.79 39.93.32 5.05.16 10.05-.45 14.87-.39 3.01-.93 5.85-1.6 8.43-2.18 8.6-5.88 15.77-10.7 20.72-.64.66-1.26 1.25-1.9 1.8-4.02 3.42-8.43 5.22-13.13 5.34h-.51l-.01-.01zm-5.19-99.68h-.35c-5.44.15-10.63 2.74-14.99 7.51-8.51 9.29-12.95 25.24-11.89 42.66 1.65 27.23 16.42 49 32.91 48.58 4.48-.11 8.7-1.84 12.56-5.12.61-.53 1.21-1.1 1.84-1.74 4.71-4.83 8.32-11.85 10.46-20.3.66-2.55 1.19-5.34 1.58-8.32.61-4.75.76-9.7.45-14.69-.95-15.54-6.39-30.25-14.54-39.36l-.08-.09c-1.82-2.02-3.77-3.75-5.8-5.14a24.187 24.187 0 0 0-4.55-2.46c-1.46-.6-2.95-1.03-4.45-1.28-1.02-.16-2.08-.24-3.13-.24l-.02-.01z"/><path fill="#000" d="M231.36 113.85c-.38 2.9-.9 5.7-1.59 8.37-2.16 8.52-5.85 15.65-10.58 20.51-11.58.04-23.68-12.66-24.51-32.2l17.35-14.97-20.83 2.57c-.07-.5-.17-1-.23-1.49-2.66-18.81 3.9-36.14 15.57-45.02 1.59.64 3.14 1.49 4.64 2.51 2.07 1.42 4.04 3.17 5.88 5.21.03.01.05.04.06.06 7.98 8.89 13.69 23.3 14.69 39.67.32 5.13.15 10.09-.45 14.78z"/><path fill="#000" d="M219.14 143.23c-5.93 0-11.98-3.26-16.62-8.94-4.98-6.11-7.94-14.54-8.34-23.74v-.24l16.28-14.05-19.69 2.43-.07-.48c-.03-.21-.07-.43-.1-.64-.05-.29-.1-.57-.13-.86-2.6-18.36 3.59-36.21 15.76-45.48l.23-.17.26.11c1.58.63 3.17 1.49 4.73 2.56 2.06 1.41 4.03 3.16 5.88 5.19l.07.02.1.16c8.43 9.4 13.82 23.96 14.79 39.95.32 5.05.16 10.06-.45 14.87-.4 3.01-.93 5.85-1.6 8.43-2.18 8.61-5.88 15.78-10.71 20.73l-.15.15h-.27.03zm-23.95-32.48c.73 15.15 9.99 31.37 23.79 31.48 4.63-4.82 8.19-11.78 10.31-20.13.66-2.55 1.19-5.34 1.58-8.31.61-4.75.76-9.69.45-14.69-.95-15.53-6.38-30.22-14.53-39.33l-.09-.1c-1.82-2.02-3.77-3.75-5.79-5.13-1.42-.96-2.86-1.75-4.28-2.35-11.74 9.1-17.69 26.48-15.15 44.38.03.28.08.55.12.82l.03.18 21.98-2.71-18.41 15.88-.01.01zm-34.27-15.5c-.64 0-1.31-.04-1.99-.13-6.99-.93-12.88-6.72-14.64-14.41l.89-.21c1.68 7.32 7.25 12.83 13.87 13.71 5.69.75 10.18-2.16 11.85-3.46l.56.72c-1.56 1.21-5.47 3.77-10.55 3.77l.01.01zm-1.17 17.02c-6.79 0-13.27-4.58-16.27-11.59l.84-.36c2.96 6.9 9.43 11.34 16.09 11.02 5.74-.27 9.63-3.94 11.04-5.51l.68.61c-1.49 1.65-5.6 5.53-11.68 5.81-.23.01-.47.02-.71.02h.01zm-.5 20.12c-6.57 0-13.23-3.43-17.63-9.39l.74-.55c5.3 7.18 14 10.55 21.63 8.36 6.57-1.88 10.08-7.2 11.29-9.4l.8.44c-1.26 2.3-4.94 7.87-11.84 9.84-1.63.47-3.31.69-5 .69l.01.01z"/><path fill="#fff" d="M323.31 94.36c.09 5.13-.3 10.07-1.12 14.73-.5 2.89-1.15 5.67-1.96 8.31-2.88 9.52-7.61 17.2-13.46 21.83-.88.69-1.78 1.31-2.7 1.86-3.22 1.91-6.7 2.95-10.37 2.93-16.78-.11-30.76-22.52-31.19-50.04-.43-27.53 12.82-49.76 29.62-49.65 1.2.02 2.4.14 3.56.36 1.06.21 2.11.51 3.14.9 2.04.76 4 1.85 5.87 3.22 2.01 1.48 3.9 3.3 5.65 5.4.03.01.05.04.06.06 7.58 9.14 12.64 23.71 12.9 40.09z"/><path fill="#000" d="M293.8 144.48h-.11c-17.02-.11-31.21-22.76-31.65-50.49-.28-17.66 4.98-33.67 14.06-42.83 4.73-4.77 10.22-7.29 15.9-7.29h.13c1.24.02 2.47.14 3.64.37 1.09.22 2.17.53 3.22.92 2.03.76 4.04 1.86 5.98 3.28 1.97 1.45 3.87 3.26 5.65 5.37l.06.02.1.15c8.01 9.66 12.74 24.37 13 40.36.09 5.07-.29 10.06-1.13 14.82-.51 2.95-1.17 5.76-1.97 8.36-2.89 9.56-7.73 17.4-13.61 22.06-.89.7-1.82 1.34-2.75 1.89-3.35 1.99-6.88 3-10.5 3l-.02.01zM292 44.79c-5.42 0-10.69 2.42-15.24 7.02-8.91 8.99-14.07 24.75-13.79 42.17.43 27.24 14.21 49.48 30.74 49.59h.1c3.45 0 6.82-.96 10.03-2.87.9-.54 1.79-1.15 2.65-1.83 5.74-4.54 10.46-12.21 13.3-21.6.79-2.57 1.44-5.35 1.95-8.26.83-4.7 1.2-9.63 1.11-14.64-.25-15.54-5.01-30.39-12.75-39.76h-.01l-.09-.11c-1.75-2.1-3.62-3.89-5.57-5.32-1.87-1.37-3.81-2.43-5.76-3.16-1-.38-2.03-.68-3.07-.88-1.12-.21-2.29-.33-3.48-.35H292z"/><path fill="#000" d="M323.31 94.36c.09 5.13-.3 10.07-1.12 14.73-.5 2.89-1.15 5.67-1.96 8.31-2.88 9.52-7.61 17.2-13.46 21.83-.88.69-1.78 1.31-2.7 1.86-7.7-4.23-14.46-14.13-16.88-31.5l13.49-15-17.87 1.95c-.1-.53-.23-1.06-.31-1.58-3.79-20.31 3.19-39.45 16.33-49.37 2.04.76 4 1.85 5.87 3.22 2.01 1.48 3.9 3.3 5.65 5.4.03.01.05.04.06.06 7.58 9.14 12.64 23.71 12.9 40.09z"/><path fill="#000" d="m304.08 141.72-.27-.15c-8.88-4.88-14.97-16.21-17.16-31.9l-.04-.25 12.71-14.12-16.95 1.85-.09-.49c-.04-.2-.08-.4-.12-.61-.07-.33-.14-.66-.19-.99-3.71-19.91 2.78-39.5 16.54-49.89l.24-.18.28.1c2.04.76 4.06 1.87 6 3.29 1.97 1.45 3.87 3.26 5.64 5.37l.07.02.11.18c8.01 9.68 12.75 24.4 13.01 40.41.09 5.08-.29 10.07-1.13 14.83-.51 2.95-1.17 5.77-1.98 8.38-2.9 9.58-7.74 17.43-13.64 22.1-.9.7-1.83 1.34-2.76 1.9l-.27.16v-.01zm-16.32-31.95c2.14 15.05 7.92 25.93 16.3 30.7.8-.5 1.6-1.05 2.37-1.66 5.72-4.53 10.44-12.19 13.28-21.56.79-2.57 1.44-5.34 1.94-8.25.83-4.7 1.2-9.62 1.11-14.63-.25-15.51-5-30.33-12.72-39.69h-.01l-.1-.13c-1.75-2.1-3.62-3.88-5.55-5.31-1.77-1.3-3.61-2.32-5.46-3.04-13.27 10.19-19.51 29.25-15.88 48.65.05.33.12.64.18.95 0 .05.02.09.03.13l18.79-2.05-14.27 15.87-.01.02z"/><path fill="#000" d="M328.78 77.91c-4.39 0-7.9-1.87-9.41-2.82l.49-.77c1.78 1.13 6.53 3.61 12.12 2.31 6.5-1.51 11.53-7.52 12.5-14.97l.91.12c-1.02 7.82-6.33 14.15-13.2 15.74-1.18.27-2.33.39-3.42.39h.01zm2.8 16.83c-5.71 0-9.88-3.25-11.45-4.69l.62-.67c1.55 1.43 5.78 4.72 11.52 4.44 6.67-.32 12.68-5.35 14.97-12.5l.87.28c-2.4 7.52-8.75 12.79-15.79 13.14-.25.01-.49.02-.73.02l-.01-.02zm2.08 19.99c-1.09 0-2.19-.1-3.27-.3-7.06-1.31-11.25-6.49-12.72-8.67l.76-.51c1.41 2.08 5.41 7.04 12.13 8.28 7.81 1.45 16.14-2.73 20.74-10.39l.79.47c-4.16 6.93-11.27 11.11-18.42 11.11l-.01.01z"/></svg>