<svg xmlns="http://www.w3.org/2000/svg" xmlns:xlink="http://www.w3.org/1999/xlink" width="500" zoomAndPan="magnify" viewBox="0 0 375 374.999991" height="500" preserveAspectRatio="xMidYMid meet" version="1.0"><defs><clipPath id="ac1599df86"><path d="M 187.5 0 L 223.898438 51.667969 L 281.25 25.121094 L 286.9375 88.0625 L 349.878906 93.75 L 323.332031 151.101562 L 375 187.5 L 323.332031 223.898438 L 349.878906 281.25 L 286.9375 286.9375 L 281.25 349.878906 L 223.898438 323.332031 L 187.5 375 L 151.101562 323.332031 L 93.75 349.878906 L 88.0625 286.9375 L 25.121094 281.25 L 51.667969 223.898438 L 0 187.5 L 51.667969 151.101562 L 25.121094 93.75 L 88.0625 88.0625 L 93.75 25.121094 L 151.101562 51.667969 Z M 187.5 0 " clip-rule="nonzero"/></clipPath><clipPath id="772b418def"><path d="M 0 0 L 375 0 L 375 375 L 0 375 Z M 0 0 " clip-rule="nonzero"/></clipPath><clipPath id="2fccb6bd78"><path d="M 187.5 0 L 223.898438 51.667969 L 281.25 25.121094 L 286.9375 88.0625 L 349.878906 93.75 L 323.332031 151.101562 L 375 187.5 L 323.332031 223.898438 L 349.878906 281.25 L 286.9375 286.9375 L 281.25 349.878906 L 223.898438 323.332031 L 187.5 375 L 151.101562 323.332031 L 93.75 349.878906 L 88.0625 286.9375 L 25.121094 281.25 L 51.667969 223.898438 L 0 187.5 L 51.667969 151.101562 L 25.121094 93.75 L 88.0625 88.0625 L 93.75 25.121094 L 151.101562 51.667969 Z M 187.5 0 " clip-rule="nonzero"/></clipPath><clipPath id="11147888b2"><rect x="0" width="375" y="0" height="375"/></clipPath></defs><g clip-path="url(#ac1599df86)"><g transform="matrix(1, 0, 0, 1, 0, 0)"><g clip-path="url(#11147888b2)"><g clip-path="url(#772b418def)"><g clip-path="url(#2fccb6bd78)"><rect x="-82.5" width="540" fill="#0d150f" height="539.999987" y="-82.499998" fill-opacity="1"/></g></g></g></g></g></svg>